<svg width="193" height="91" viewBox="0 0 193 91" fill="none" xmlns="http://www.w3.org/2000/svg">
<g clip-path="url(#clip0_553_10)">
<path d="M79.2356 51.7559C79.2356 47.092 76.5892 44.3626 73.255 42.5424L70.7248 41.1777C69.2308 40.3806 67.9657 39.1292 67.9657 37.5369C67.9657 35.7167 69.46 34.4666 71.6449 34.4666C73.1404 34.4666 74.5188 35.0345 75.5548 35.4901C77.1662 36.2856 78.2009 35.2621 78.6601 33.5565C79.2356 31.6214 78.4297 30.9408 77.05 30.2586C75.6707 29.5748 73.7159 29.1202 71.7611 29.1202C66.3543 29.1202 61.8693 32.6464 61.8693 38.3337C61.8693 42.7703 64.1691 45.273 67.8515 47.3199L70.4943 48.7989C72.1045 49.709 73.1404 50.9604 73.1404 52.666C73.1404 54.8275 71.0698 55.8512 69.0004 55.8512C67.389 55.8512 65.4355 55.1687 64.3995 54.7128C62.6748 53.9173 61.7547 54.9408 61.1796 56.7613C60.6055 58.6949 61.5259 59.492 63.0198 60.1742C64.3995 60.8563 66.8152 61.4252 69.0004 61.4252C74.6347 61.4252 79.2356 57.6714 79.2356 51.7559ZM59.1102 50.6178V31.7363C59.1102 30.1437 57.5001 29.3482 56.0049 29.3482C54.3964 29.3482 52.9005 30.1437 52.9005 31.7363V49.822C52.9005 53.4631 51.7487 55.8512 48.7605 55.8512C45.8856 55.8512 44.5046 53.5764 44.5046 49.822V31.7363C44.5046 30.1437 42.7803 29.3482 41.2847 29.3482C39.5603 29.3482 38.0648 30.1437 38.0648 31.7363V50.5045C38.0648 58.0124 41.8598 61.4252 48.7605 61.4252C54.9686 61.4252 59.1102 57.8994 59.1102 50.6178ZM35.0737 51.9838C35.0737 46.7507 31.3958 44.8172 29.4397 44.4759V44.3626C31.7392 43.2246 34.5015 41.0644 34.5015 37.1957C34.5015 31.9642 29.9003 29.4615 25.4156 29.4615H16.7902C15.1804 29.4615 14.2603 30.7128 14.2603 32.0772V58.6949C14.2603 60.2872 15.8701 61.0843 17.3656 61.0843H25.5298C30.4744 61.0843 35.0737 58.4669 35.0737 51.9838ZM28.0601 38.675C28.0601 41.632 25.5298 42.657 22.8854 42.657H20.4697V34.6933H22.8854C25.6444 34.6933 28.0601 35.6034 28.0601 38.675ZM28.9805 51.3016C28.9805 54.3732 27.2545 55.8512 23.575 55.8512H20.8144V46.9787H23.575C25.8748 46.9787 28.9805 47.7754 28.9805 51.3016ZM89.0099 5.91542H2.9898C1.33879 5.91542 0 4.59118 0 2.95811C0 1.32473 1.33879 0.000488281 2.9898 0.000488281H89.0099C90.6612 0.000488281 91.9997 1.32473 91.9997 2.95811C91.9997 4.59118 90.6612 5.91542 89.0099 5.91542ZM89.0099 91.0002H2.9898C1.33879 91.0002 0 89.6763 0 88.0429C0 86.4095 1.33879 85.0852 2.9898 85.0852H89.0099C90.6612 85.0852 91.9997 86.4095 91.9997 88.0429C91.9997 89.6763 90.6612 91.0002 89.0099 91.0002Z" fill="#25303B"/>
</g>
<path d="M98.9336 23.334C98.9336 20.5726 101.172 18.334 103.934 18.334H188.001C190.762 18.334 193.001 20.5726 193.001 23.334V67.8657C193.001 70.6271 190.762 72.8657 188.001 72.8657H103.934C101.172 72.8657 98.9336 70.6271 98.9336 67.8657V23.334Z" fill="#008B5A"/>
<path d="M116.497 63.2682V36.0297C115.314 36.9622 111.816 38.7781 110.534 39.4161L108.711 40.3486L106.346 35.0482L108.465 34.0666C112.505 32.2017 116.251 29.8459 117.828 28.619H123.889V63.2682H116.497ZM145.916 63.2682H137.982C137.982 58.7039 139.214 55.7592 142.27 50.1152L150.745 34.4102H133.843V28.6189H158.186V34.2629C150.548 47.465 145.916 57.8205 145.916 63.2682ZM162.277 63.2682V58.7039C163.164 54.6795 167.155 51.1458 171.787 47.1215C174.103 45.1093 176.617 42.7044 176.617 39.3671C176.617 36.3733 174.645 33.9685 170.851 33.9685C167.796 33.9685 165.677 36.177 164.839 37.1095L161.192 32.2999C164.543 29.4042 167.648 28.03 172.329 28.03C178.44 28.03 184.205 31.4655 184.205 38.5328C184.205 44.4712 180.411 47.1705 176.222 50.9496C174.448 52.5691 170.949 55.4648 170.506 57.4769H184.846V63.2682H162.277Z" fill="white"/>
<defs>
<clipPath id="clip0_553_10">
<rect width="92" height="91" fill="white"/>
</clipPath>
</defs>
</svg>
