<svg width="92" height="165" viewBox="0 0 92 165" fill="none" xmlns="http://www.w3.org/2000/svg">
<g clip-path="url(#clip0_570_2)">
<path d="M79.2356 51.7559C79.2356 47.092 76.5892 44.3626 73.255 42.5424L70.7248 41.1777C69.2308 40.3806 67.9657 39.1292 67.9657 37.5369C67.9657 35.7167 69.46 34.4666 71.6449 34.4666C73.1404 34.4666 74.5188 35.0345 75.5548 35.4901C77.1662 36.2856 78.2009 35.2621 78.6601 33.5565C79.2356 31.6214 78.4297 30.9408 77.05 30.2586C75.6707 29.5748 73.7159 29.1202 71.7611 29.1202C66.3543 29.1202 61.8693 32.6464 61.8693 38.3337C61.8693 42.7703 64.1691 45.273 67.8515 47.3199L70.4943 48.7989C72.1045 49.709 73.1404 50.9604 73.1404 52.666C73.1404 54.8275 71.0698 55.8512 69.0004 55.8512C67.389 55.8512 65.4355 55.1687 64.3995 54.7128C62.6748 53.9173 61.7547 54.9408 61.1796 56.7613C60.6055 58.6949 61.5259 59.492 63.0198 60.1742C64.3995 60.8563 66.8152 61.4252 69.0004 61.4252C74.6347 61.4252 79.2356 57.6714 79.2356 51.7559ZM59.1102 50.6178V31.7363C59.1102 30.1437 57.5001 29.3482 56.0049 29.3482C54.3964 29.3482 52.9005 30.1437 52.9005 31.7363V49.822C52.9005 53.4631 51.7487 55.8512 48.7605 55.8512C45.8856 55.8512 44.5046 53.5764 44.5046 49.822V31.7363C44.5046 30.1437 42.7803 29.3482 41.2847 29.3482C39.5603 29.3482 38.0648 30.1437 38.0648 31.7363V50.5045C38.0648 58.0124 41.8598 61.4252 48.7605 61.4252C54.9686 61.4252 59.1102 57.8994 59.1102 50.6178ZM35.0737 51.9838C35.0737 46.7507 31.3958 44.8172 29.4397 44.4759V44.3626C31.7392 43.2246 34.5015 41.0644 34.5015 37.1957C34.5015 31.9642 29.9003 29.4615 25.4156 29.4615H16.7902C15.1804 29.4615 14.2603 30.7128 14.2603 32.0772V58.6949C14.2603 60.2872 15.8701 61.0843 17.3656 61.0843H25.5298C30.4744 61.0843 35.0737 58.4669 35.0737 51.9838ZM28.0601 38.675C28.0601 41.632 25.5298 42.657 22.8854 42.657H20.4697V34.6933H22.8854C25.6444 34.6933 28.0601 35.6034 28.0601 38.675ZM28.9805 51.3016C28.9805 54.3732 27.2545 55.8512 23.575 55.8512H20.8144V46.9787H23.575C25.8748 46.9787 28.9805 47.7754 28.9805 51.3016ZM89.0099 5.91542H2.9898C1.33879 5.91542 0 4.59118 0 2.95811C0 1.32473 1.33879 0.000488281 2.9898 0.000488281H89.0099C90.6612 0.000488281 91.9997 1.32473 91.9997 2.95811C91.9997 4.59118 90.6612 5.91542 89.0099 5.91542ZM89.0099 91.0002H2.9898C1.33879 91.0002 0 89.6763 0 88.0429C0 86.4095 1.33879 85.0852 2.9898 85.0852H89.0099C90.6612 85.0852 91.9997 86.4095 91.9997 88.0429C91.9997 89.6763 90.6612 91.0002 89.0099 91.0002Z" fill="#25303B"/>
</g>
<path d="M0 117C0 114.239 2.23858 112 5 112H87C89.7614 112 92 114.239 92 117V160C92 162.761 89.7614 165 87 165H5C2.23858 165 0 162.761 0 160V117Z" fill="#77C695"/>
<path d="M16.744 156.805C12.376 156.805 9.73601 155.782 7 154.223L9.59201 148.913C11.032 150.034 13.384 151.154 16.264 151.154C20.2 151.154 22.648 149.011 22.648 146.088C22.648 142.142 19.672 140.875 16.216 140.875H12.712V135.176H16.264C19.576 135.176 21.64 133.52 21.64 130.889C21.64 128.697 20.008 126.797 16.456 126.797C13.336 126.797 11.272 128.307 10.168 129.281L7.816 124.215C10.744 122.267 14.008 121.146 17.992 121.146C24.904 121.146 28.8399 125.238 28.8399 129.817C28.8399 133.373 26.9679 136.101 23.3679 137.465V137.563C27.1119 138.294 29.944 141.119 29.944 145.942C29.944 151.982 24.616 156.805 16.744 156.805ZM45.64 156.903C38.104 156.903 33.832 152.323 33.832 147.111C33.832 142.532 36.376 139.853 39.64 138.147C36.712 136.296 34.888 134.202 34.888 130.645C34.888 124.946 39.9759 121 45.784 121C51.736 121 56.6799 123.972 56.6799 129.866C56.6799 133.081 55.0479 135.566 51.8799 137.514C54.9999 139.024 57.7359 141.752 57.7359 146.283C57.736 152.811 52.6 156.903 45.64 156.903ZM45.064 140.535C42.8561 141.411 40.6481 143.652 40.6481 146.332C40.6481 149.157 42.472 151.836 45.736 151.836C48.9519 151.836 50.7279 149.547 50.7279 146.819C50.7279 143.701 47.944 141.996 45.064 140.535ZM45.88 125.969C43.24 125.969 41.56 127.625 41.56 130.012C41.56 132.838 44.344 134.348 46.504 135.273C48.28 134.445 50.2 132.448 50.2 130.305C50.2 127.917 48.664 125.969 45.88 125.969ZM72.568 157C62.3441 157 60.328 146.965 60.328 139.024C60.328 131.084 62.536 121.049 72.76 121.049C82.984 121.049 85 131.084 85 139.024C85 146.965 82.792 157 72.568 157ZM72.664 126.846C67.768 126.846 67.624 135.517 67.624 139.024C67.624 142.483 67.864 151.252 72.664 151.252C77.464 151.252 77.656 142.434 77.656 139.024C77.656 135.419 77.512 126.846 72.664 126.846Z" fill="black"/>
<defs>
<clipPath id="clip0_570_2">
<rect width="92" height="91" fill="white"/>
</clipPath>
</defs>
</svg>
