<svg width="97" height="97" viewBox="0 0 97 97" fill="none" xmlns="http://www.w3.org/2000/svg">
<g clip-path="url(#clip0_541_65)">
<mask id="mask0_541_65" style="mask-type:alpha" maskUnits="userSpaceOnUse" x="0" y="0" width="97" height="97">
<path d="M97 0H0V97H97V0Z" fill="white"/>
</mask>
<g mask="url(#mask0_541_65)">
<path d="M84.0877 -1.23975H12.9835C9.21214 -1.23975 5.59529 0.2579 2.92855 2.92372C0.261827 5.58954 -1.23633 9.20518 -1.23633 12.9752V84.0554C-1.23633 87.8254 0.261827 91.441 2.92855 94.1068C5.59529 96.7727 9.21214 98.2703 12.9835 98.2703H84.0877C87.8591 98.2703 91.4759 96.7727 94.1427 94.1068C96.8094 91.441 98.3076 87.8254 98.3076 84.0554V12.9752C98.3076 9.20518 96.8094 5.58954 94.1427 2.92372C91.4759 0.2579 87.8591 -1.23975 84.0877 -1.23975Z" fill="#CC3939" stroke="white" stroke-width="1.5"/>
<path d="M48.5359 72.9482C49.1287 72.9628 49.7183 72.8587 50.2701 72.6419C50.8219 72.4253 51.3248 72.1004 51.7492 71.6864C52.1734 71.2725 52.5107 70.778 52.7408 70.2318C52.9711 69.6856 53.0897 69.0989 53.0897 68.5062C53.0897 67.9136 52.9711 67.3269 52.7408 66.7808C52.5107 66.2346 52.1734 65.7401 51.7492 65.3261C51.3248 64.9122 50.8219 64.5873 50.2701 64.3707C49.7183 64.1539 49.1287 64.0497 48.5359 64.0642C47.3764 64.0926 46.2738 64.5732 45.4636 65.4031C44.6534 66.233 44.2 67.3467 44.2 68.5062C44.2 69.6659 44.6534 70.7795 45.4636 71.6095C46.2738 72.4394 47.3764 72.9198 48.5359 72.9482ZM52.9782 30.7538C52.9927 30.1614 52.8885 29.572 52.6717 29.0203C52.455 28.4687 52.13 27.966 51.7159 27.5418C51.3019 27.1176 50.8071 26.7805 50.2608 26.5504C49.7144 26.3202 49.1275 26.2017 48.5346 26.2017C47.9419 26.2017 47.3549 26.3202 46.8086 26.5504C46.2622 26.7805 45.7675 27.1176 45.3534 27.5418C44.9394 27.966 44.6144 28.4687 44.3976 29.0203C44.1809 29.572 44.0766 30.1614 44.0912 30.7538V52.9653C44.1196 54.1245 44.6001 55.2267 45.4304 56.0366C46.2606 56.8465 47.3747 57.2997 48.5346 57.2997C49.6947 57.2997 50.8087 56.8465 51.6389 56.0366C52.4691 55.2267 52.9498 54.1245 52.9782 52.9653V30.7538Z" fill="white"/>
</g>
</g>
<defs>
<clipPath id="clip0_541_65">
<rect width="97" height="97" rx="12" fill="white"/>
</clipPath>
</defs>
</svg>
