<svg width="81" height="81" viewBox="0 0 81 81" fill="none" xmlns="http://www.w3.org/2000/svg">
<g clip-path="url(#clip0_2_349)">
<path d="M70.218 -1.03522H10.8423C7.69302 -1.03522 4.67275 0.215392 2.4459 2.44149C0.219042 4.66759 -1.03199 7.68683 -1.03199 10.835V70.1906C-1.03199 73.3388 0.219042 76.358 2.4459 78.5841C4.67275 80.8102 7.69302 82.0608 10.8423 82.0608H70.218C73.3673 82.0608 76.3875 80.8102 78.6144 78.5841C80.8412 76.358 82.0923 73.3388 82.0923 70.1906V10.835C82.0923 7.68683 80.8412 4.66759 78.6144 2.44149C76.3875 0.215392 73.3673 -1.03522 70.218 -1.03522V-1.03522Z" fill="#1972D2" stroke="white" stroke-width="1.5"/>
<path d="M40.5313 29.3893C41.0262 29.4015 41.5185 29.3145 41.9793 29.1335C42.4401 28.9525 42.86 28.6813 43.2144 28.3356C43.5687 27.99 43.8503 27.577 44.0425 27.1209C44.2348 26.6648 44.3338 26.1749 44.3338 25.68C44.3338 25.1851 44.2348 24.6952 44.0425 24.2391C43.8503 23.7831 43.5687 23.3701 43.2144 23.0244C42.86 22.6788 42.4401 22.4075 41.9793 22.2265C41.5185 22.0456 41.0262 21.9586 40.5313 21.9707C39.5629 21.9944 38.6422 22.3956 37.9657 23.0887C37.2892 23.7817 36.9105 24.7117 36.9105 25.68C36.9105 26.6484 37.2892 27.5783 37.9657 28.2714C38.6422 28.9644 39.5629 29.3656 40.5313 29.3893ZM44.2407 37.5491C44.2528 37.0544 44.1658 36.5622 43.9848 36.1016C43.8038 35.6409 43.5324 35.2211 43.1866 34.8669C42.8409 34.5127 42.4277 34.2312 41.9715 34.039C41.5153 33.8469 41.0252 33.7478 40.5301 33.7478C40.0351 33.7478 39.545 33.8469 39.0888 34.039C38.6325 34.2312 38.2194 34.5127 37.8736 34.8669C37.5279 35.2211 37.2565 35.6409 37.0755 36.1016C36.8945 36.5622 36.8074 37.0544 36.8196 37.5491V56.0968C36.8074 56.5915 36.8945 57.0837 37.0755 57.5444C37.2565 58.005 37.5279 58.4248 37.8736 58.779C38.2194 59.1332 38.6325 59.4147 39.0888 59.6069C39.545 59.7991 40.0351 59.8981 40.5301 59.8981C41.0252 59.8981 41.5153 59.7991 41.9715 59.6069C42.4277 59.4147 42.8409 59.1332 43.1866 58.779C43.5324 58.4248 43.8038 58.005 43.9848 57.5444C44.1658 57.0837 44.2528 56.5915 44.2407 56.0968V37.5491V37.5491Z" fill="white"/>
</g>
<defs>
<clipPath id="clip0_2_349">
<rect width="81" height="81" fill="white"/>
</clipPath>
</defs>
</svg>
