<svg width="128" height="60" viewBox="0 0 128 60" fill="none" xmlns="http://www.w3.org/2000/svg">
<g clip-path="url(#clip0_545_7)">
<path d="M30.0001 0.000488281C13.4315 0.000488281 0 13.4318 0 30.0004C0 46.569 13.4315 60.0005 30.0001 60.0005C46.5685 60.0005 60 46.569 60 30.0004C60 13.4318 46.5685 0.000488281 30.0001 0.000488281ZM30.0001 56.8803C15.1547 56.8803 3.12017 44.8458 3.12017 30.0004C3.12017 15.155 15.1547 3.12045 30.0001 3.12045C44.8453 3.12045 56.88 15.155 56.88 30.0004C56.88 44.8458 44.8453 56.8803 30.0001 56.8803ZM29.9976 40.709C28.9951 40.709 28.4312 40.2179 27.9927 39.3586L19.9273 23.2753H19.8524L19.8526 43.746C19.8526 44.9569 18.7054 45.6584 17.6851 45.6584C16.5377 45.6584 15.5814 44.9567 15.5814 43.7458V16.6584C15.5814 15.4585 16.2716 14.1984 18.3426 14.1984C19.9117 14.1984 20.5799 14.8584 21.2295 16.1786L29.9626 34.6056H30.0376L38.7656 16.1786C39.4152 14.8584 40.0833 14.1984 41.6525 14.1984C43.7235 14.1984 44.4137 15.4585 44.4137 16.6584V43.7458C44.4137 44.9567 43.4576 45.6584 42.31 45.6584C41.2898 45.6584 40.1425 44.9569 40.1425 43.746L40.1427 23.2753H40.0676L32.0025 39.3586C31.5639 40.2179 31 40.709 29.9976 40.709Z" fill="white"/>
</g>
<g clip-path="url(#clip1_545_7)">
<path d="M68 30C68 24.0666 69.7595 18.2664 73.0559 13.3329C76.3524 8.39943 81.0377 4.55426 86.5195 2.28363C92.0013 0.0129986 98.0333 -0.581102 103.853 0.576455C109.672 1.73401 115.018 4.59123 119.213 8.78681C123.409 12.9824 126.266 18.3279 127.424 24.1473C128.581 29.9667 127.987 35.9987 125.716 41.4805C123.446 46.9623 119.601 51.6477 114.667 54.9441C109.734 58.2405 103.933 60 98 60C90.0437 59.9994 82.4134 56.8386 76.7874 51.2126C71.1614 45.5866 68.0006 37.9563 68 30" fill="#F49FB3"/>
<path d="M109.524 19.315V14.1333H87.2734V19.4505H102.725L94.9761 33.8673C92.1842 39.0448 91.0581 41.7478 91.0581 45.9325H98.3099C98.3099 40.935 102.543 31.4267 109.528 19.315" fill="#25303B"/>
</g>
<defs>
<clipPath id="clip0_545_7">
<rect width="60" height="60" fill="white"/>
</clipPath>
<clipPath id="clip1_545_7">
<rect width="60" height="60" fill="white" transform="translate(68)"/>
</clipPath>
</defs>
</svg>
