<svg width="193" height="93" viewBox="0 0 193 93" fill="none" xmlns="http://www.w3.org/2000/svg">
<g clip-path="url(#clip0_551_8)">
<path d="M46.4998 0C20.8188 0 0 20.8188 0 46.4998C0 72.1812 20.8188 93 46.4998 93C72.1812 93 93 72.1812 93 46.4998C93 20.8188 72.1812 0 46.4998 0ZM46.4998 86.9551C24.1574 86.9551 6.04493 68.8426 6.04493 46.4998C6.04493 24.1574 24.1574 6.04493 46.4998 6.04493C68.8426 6.04493 86.9547 24.1574 86.9547 46.4998C86.9547 68.8426 68.8426 86.9551 46.4998 86.9551ZM69.6339 67.3075C69.6339 69.5165 67.8895 70.7954 65.7993 70.7954C63.9374 70.7954 61.8456 69.5165 61.8456 67.3075V37.0822H61.7298L50.2203 60.5647C49.406 62.1924 48.3601 63.1225 46.5011 63.1225C44.6409 63.1225 43.5933 62.1924 42.7804 60.5647L31.2712 37.0822H31.1557V67.3075C31.1557 69.5165 29.0622 70.7954 27.2033 70.7954C25.1118 70.7954 23.367 69.5165 23.367 67.3075V26.7374C23.367 24.4113 24.6459 21.9707 28.4822 21.9707C31.3887 21.9707 32.5501 23.2496 33.8289 25.8073L46.5011 51.9634H46.617L59.172 25.8073C60.4496 23.2496 61.6126 21.9707 64.5188 21.9707C68.3554 21.9707 69.6339 24.4113 69.6339 26.7374V67.3075Z" fill="#25303B"/>
</g>
<g clip-path="url(#clip1_551_8)">
<path d="M100 46.4999C100 37.3031 102.727 28.3128 107.837 20.6659C112.946 13.019 120.208 7.05898 128.705 3.5395C137.202 0.0200258 146.552 -0.90083 155.572 0.893383C164.592 2.6876 172.877 7.11629 179.38 13.6194C185.884 20.1226 190.312 28.4081 192.107 37.4282C193.901 46.4483 192.98 55.7979 189.46 64.2947C185.941 72.7915 179.981 80.0538 172.334 85.1632C164.687 90.2727 155.697 92.9999 146.5 92.9999C134.168 92.999 122.341 88.0997 113.62 79.3794C104.9 70.6592 100.001 58.8322 100 46.4999" fill="#F49FB3"/>
<path d="M164.362 29.9381V21.9065H129.873V30.1481H153.824L141.812 52.4942C137.485 60.5192 135.739 64.7089 135.739 71.1953H146.98C146.98 63.4491 153.541 48.7113 164.368 29.9381" fill="#25303B"/>
</g>
<defs>
<clipPath id="clip0_551_8">
<rect width="93" height="93" fill="white"/>
</clipPath>
<clipPath id="clip1_551_8">
<rect width="93" height="93" fill="white" transform="translate(100)"/>
</clipPath>
</defs>
</svg>
