<svg width="97" height="96" viewBox="0 0 97 96" fill="none" xmlns="http://www.w3.org/2000/svg">
<path d="M73.1574 34.2444L41.2442 69.3695C41.1293 69.497 40.9899 69.6006 40.8341 69.6743C40.6783 69.748 40.5093 69.7902 40.3368 69.7988C39.9999 69.8023 39.6746 69.6763 39.4296 69.4475L23.966 54.812C23.8432 54.6923 23.7456 54.5494 23.679 54.392C23.6125 54.2345 23.5781 54.0656 23.5781 53.8949C23.5781 53.7242 23.6125 53.5552 23.679 53.3978C23.7456 53.2403 23.8432 53.0976 23.966 52.9777L29.8832 47.1236C30.1262 46.8899 30.4517 46.7593 30.7905 46.7593C31.1293 46.7593 31.4548 46.8899 31.6977 47.1236L40.2185 55.4365L65.2678 26.712C65.3896 26.5844 65.5362 26.4828 65.699 26.4134C65.8618 26.3439 66.0372 26.3081 66.2145 26.3081C66.3918 26.3081 66.5674 26.3439 66.7301 26.4134C66.8929 26.4828 67.0396 26.5844 67.1613 26.712L73.1179 32.4101C73.2434 32.5273 73.344 32.668 73.414 32.824C73.484 32.9801 73.522 33.1483 73.5256 33.319C73.5293 33.4897 73.4986 33.6595 73.4354 33.8183C73.3722 33.9772 73.2777 34.122 73.1574 34.2444Z" fill="white"/>
<path d="M48.5424 1.18774C39.18 1.18774 30.0278 3.93447 22.2432 9.0806C14.4587 14.2267 8.39129 21.541 4.80844 30.0987C1.22559 38.6564 0.288153 48.0731 2.11467 57.1579C3.94119 66.2426 8.44964 74.5876 15.0699 81.1374C21.6901 87.6872 30.1248 92.1475 39.3074 93.9547C48.4899 95.7617 58.0078 94.8342 66.6577 91.2896C75.3074 87.7449 82.7005 81.7421 87.902 74.0404C93.1035 66.3386 95.8798 57.284 95.8798 48.0211C95.8798 35.6001 90.8925 23.6879 82.015 14.905C73.1375 6.12196 61.0971 1.18774 48.5424 1.18774ZM73.1578 34.2443L41.2446 69.3694C41.1297 69.4969 40.9903 69.6005 40.8345 69.6742C40.6787 69.7479 40.5097 69.7902 40.3372 69.7987C40.0003 69.8022 39.6751 69.6763 39.43 69.4474L23.9664 54.812C23.8436 54.6922 23.746 54.5494 23.6795 54.3919C23.6129 54.2344 23.5786 54.0655 23.5786 53.8948C23.5786 53.7241 23.6129 53.5552 23.6795 53.3977C23.746 53.2402 23.8436 53.0975 23.9664 52.9776L29.8837 47.1235C30.1266 46.8898 30.4521 46.7592 30.7909 46.7592C31.1297 46.7592 31.4552 46.8898 31.6983 47.1235L40.219 55.4364L65.2682 26.7119C65.39 26.5843 65.5367 26.4827 65.6995 26.4133C65.8623 26.3439 66.0377 26.308 66.2151 26.308C66.3924 26.308 66.5678 26.3439 66.7306 26.4133C66.8934 26.4827 67.0401 26.5843 67.1618 26.7119L73.1183 32.41C73.2438 32.5272 73.3445 32.6679 73.4145 32.824C73.4845 32.98 73.5225 33.1483 73.5261 33.319C73.5298 33.4897 73.4991 33.6594 73.4359 33.8183C73.3726 33.9771 73.2781 34.122 73.1578 34.2443Z" fill="#4CAF50"/>
</svg>
