<?xml version="1.0" encoding="utf-8"?>
<!DOCTYPE svg PUBLIC "-//W3C//DTD SVG 1.1//EN" "http://www.w3.org/Graphics/SVG/1.1/DTD/svg11.dtd">
<svg version="1.1" id="Layer_1" xmlns="http://www.w3.org/2000/svg" xmlns:xlink="http://www.w3.org/1999/xlink" x="0px" y="0px"
width="1155px" height="1155px" viewBox="0 0 1155 1155" enable-background="new 0 0 1155 1155" xml:space="preserve">
<g transform="translate(70,70)"><g transform="translate(280,0) scale(0.35,0.35)"><g transform="" style="fill: rgb(255, 255, 255);">
<path d="M99.999,73.426C99.999,85.11,100,100,100,100s-34.008,0-49.953-0.001c-12.452,0.001-49.952,0-49.952,0V74.931
	c0,0-2.101-65.501,13.486-73.267C37.695-10.353,99.999,45.737,99.999,73.426z"/>
</g></g><g transform="translate(385,0) scale(0.35,0.35)"><g transform="" style="fill: rgb(255, 255, 255);">
<path d="M99.999,73.426C99.999,85.11,100,100,100,100s-34.008,0-49.953-0.001c-12.452,0.001-49.952,0-49.952,0V74.931
	c0,0-2.101-65.501,13.486-73.267C37.695-10.353,99.999,45.737,99.999,73.426z"/>
</g></g><g transform="translate(525,0) scale(0.35,0.35)"><g transform="" style="fill: rgb(255, 255, 255);">
<path d="M73.425,0.001C85.11,0.001,100,0,100,0s0,34.008-0.001,49.953c0.001,12.452,0,49.952,0,49.952H74.931
	c0,0-65.501,2.1-73.268-13.486C-10.352,62.305,45.736,0.001,73.425,0.001z"/>
</g></g><g transform="translate(560,0) scale(0.35,0.35)"><g transform="" style="fill: rgb(255, 255, 255);">
<g>
	<path d="M100,34.375c0-9.505-3.354-17.611-10.059-24.316S75.131,0,65.625,0H0v100h100V34.375z"/>
</g>
</g></g><g transform="translate(630,0) scale(0.35,0.35)"><g transform="" style="fill: rgb(255, 255, 255);">
<g>
	<path d="M95.338,83.975C120.428,37.136,29.47-30.196,4.645,16.13C-20.399,62.878,70.625,130.076,95.338,83.975"/>
</g>
</g></g><g transform="translate(700,0) scale(0.35,0.35)"><g transform="" style="fill: rgb(255, 255, 255);">
<path d="M99.999,73.426C99.999,85.11,100,100,100,100s-34.008,0-49.953-0.001c-12.452,0.001-49.952,0-49.952,0V74.931
	c0,0-2.101-65.501,13.486-73.267C37.695-10.353,99.999,45.737,99.999,73.426z"/>
</g></g><g transform="translate(280,35) scale(0.35,0.35)"><g transform="" style="fill: rgb(255, 255, 255);">
<rect width="100" height="100"/>
</g></g><g transform="translate(385,35) scale(0.35,0.35)"><g transform="" style="fill: rgb(255, 255, 255);">
<rect width="100" height="100"/>
</g></g><g transform="translate(560,35) scale(0.35,0.35)"><g transform="" style="fill: rgb(255, 255, 255);">
<rect width="100" height="100"/>
</g></g><g transform="translate(595,35) scale(0.35,0.35)"><g transform="" style="fill: rgb(255, 255, 255);">
<path d="M26.574,99.999C14.89,99.999,0,100,0,100s0-34.008,0.001-49.953c-0.001-12.453,0-49.953,0-49.953h25.068
	c0,0,64.501-2.101,72.268,13.486C109.354,37.695,54.264,99.999,26.574,99.999z"/>
</g></g><g transform="translate(665,35) scale(0.35,0.35)"><g transform="" style="fill: rgb(255, 255, 255);">
<g>
	<path d="M100,34.375V0H34.375C24.87,0,16.764,3.353,10.059,10.059S0,24.87,0,34.375V100h100V34.375z"/>
</g>
</g></g><g transform="translate(700,35) scale(0.35,0.35)"><g transform="" style="fill: rgb(255, 255, 255);">
<g>
	<path d="M100,0H0v100h65.625c9.506,0,17.611-3.354,24.316-10.059S100,75.131,100,65.625V0z"/>
</g>
</g></g><g transform="translate(280,70) scale(0.35,0.35)"><g transform="" style="fill: rgb(255, 255, 255);">
<g>
	<path d="M100,0H0v65.625c0,9.506,3.353,17.611,10.059,24.316S24.87,100,34.375,100H100V0z"/>
</g>
</g></g><g transform="translate(315,70) scale(0.35,0.35)"><g transform="" style="fill: rgb(255, 255, 255);">
<rect width="100" height="100"/>
</g></g><g transform="translate(350,70) scale(0.35,0.35)"><g transform="" style="fill: rgb(255, 255, 255);">
<rect width="100" height="100"/>
</g></g><g transform="translate(385,70) scale(0.35,0.35)"><g transform="" style="fill: rgb(255, 255, 255);">
<rect width="100" height="100"/>
</g></g><g transform="translate(420,70) scale(0.35,0.35)"><g transform="" style="fill: rgb(255, 255, 255);">
<path d="M26.574,99.999C14.89,99.999,0,100,0,100s0-34.008,0.001-49.953c-0.001-12.453,0-49.953,0-49.953h25.068
	c0,0,64.501-2.101,72.268,13.486C109.354,37.695,54.264,99.999,26.574,99.999z"/>
</g></g><g transform="translate(525,70) scale(0.35,0.35)"><g transform="" style="fill: rgb(255, 255, 255);">
<path d="M73.425,0.001C85.11,0.001,100,0,100,0s0,34.008-0.001,49.953c0.001,12.452,0,49.952,0,49.952H74.931
	c0,0-65.501,2.1-73.268-13.486C-10.352,62.305,45.736,0.001,73.425,0.001z"/>
</g></g><g transform="translate(560,70) scale(0.35,0.35)"><g transform="" style="fill: rgb(255, 255, 255);">
<rect width="100" height="100"/>
</g></g><g transform="translate(665,70) scale(0.35,0.35)"><g transform="" style="fill: rgb(255, 255, 255);">
<path d="M0.001,25.574C0.001,13.89,0-1,0-1s34.008,0,49.953,0.001c12.452-0.001,49.952,0,49.952,0v25.068
	c0,0,2.101,65.501-13.486,73.267C62.305,109.353,0.001,53.264,0.001,25.574z"/>
</g></g><g transform="translate(315,105) scale(0.35,0.35)"><g transform="" style="fill: rgb(255, 255, 255);">
<g>
	<path d="M100,0H0v65.625c0,9.506,3.353,17.611,10.059,24.316S24.87,100,34.375,100H100V0z"/>
</g>
</g></g><g transform="translate(350,105) scale(0.35,0.35)"><g transform="" style="fill: rgb(255, 255, 255);">
<rect width="100" height="100"/>
</g></g><g transform="translate(385,105) scale(0.35,0.35)"><g transform="" style="fill: rgb(255, 255, 255);">
<rect width="100" height="100"/>
</g></g><g transform="translate(560,105) scale(0.35,0.35)"><g transform="" style="fill: rgb(255, 255, 255);">
<rect width="100" height="100"/>
</g></g><g transform="translate(280,140) scale(0.35,0.35)"><g transform="" style="fill: rgb(255, 255, 255);">
<g>
	<path d="M95.338,83.975C120.428,37.136,29.47-30.196,4.645,16.13C-20.399,62.878,70.625,130.076,95.338,83.975"/>
</g>
</g></g><g transform="translate(350,140) scale(0.35,0.35)"><g transform="" style="fill: rgb(255, 255, 255);">
<g>
	<path d="M100,0H0v65.625c0,9.506,3.353,17.611,10.059,24.316S24.87,100,34.375,100H100V0z"/>
</g>
</g></g><g transform="translate(385,140) scale(0.35,0.35)"><g transform="" style="fill: rgb(255, 255, 255);">
<rect width="100" height="100"/>
</g></g><g transform="translate(490,140) scale(0.35,0.35)"><g transform="" style="fill: rgb(255, 255, 255);">
<path d="M73.425,0.001C85.11,0.001,100,0,100,0s0,34.008-0.001,49.953c0.001,12.452,0,49.952,0,49.952H74.931
	c0,0-65.501,2.1-73.268-13.486C-10.352,62.305,45.736,0.001,73.425,0.001z"/>
</g></g><g transform="translate(525,140) scale(0.35,0.35)"><g transform="" style="fill: rgb(255, 255, 255);">
<rect width="100" height="100"/>
</g></g><g transform="translate(560,140) scale(0.35,0.35)"><g transform="" style="fill: rgb(255, 255, 255);">
<rect width="100" height="100"/>
</g></g><g transform="translate(595,140) scale(0.35,0.35)"><g transform="" style="fill: rgb(255, 255, 255);">
<path d="M26.574,99.999C14.89,99.999,0,100,0,100s0-34.008,0.001-49.953c-0.001-12.453,0-49.953,0-49.953h25.068
	c0,0,64.501-2.101,72.268,13.486C109.354,37.695,54.264,99.999,26.574,99.999z"/>
</g></g><g transform="translate(315,175) scale(0.35,0.35)"><g transform="" style="fill: rgb(255, 255, 255);">
<g>
	<path d="M95.338,83.975C120.428,37.136,29.47-30.196,4.645,16.13C-20.399,62.878,70.625,130.076,95.338,83.975"/>
</g>
</g></g><g transform="translate(385,175) scale(0.35,0.35)"><g transform="" style="fill: rgb(255, 255, 255);">
<g>
	<path d="M100,0H0v65.625c0,9.506,3.353,17.611,10.059,24.316S24.87,100,34.375,100H100V0z"/>
</g>
</g></g><g transform="translate(420,175) scale(0.35,0.35)"><g transform="" style="fill: rgb(255, 255, 255);">
<g>
	<path d="M100,34.375c0-9.505-3.354-17.611-10.059-24.316S75.131,0,65.625,0H0v100h100V34.375z"/>
</g>
</g></g><g transform="translate(525,175) scale(0.35,0.35)"><g transform="" style="fill: rgb(255, 255, 255);">
<g>
	<path d="M100,0H0v65.625c0,9.506,3.353,17.611,10.059,24.316S24.87,100,34.375,100H100V0z"/>
</g>
</g></g><g transform="translate(560,175) scale(0.35,0.35)"><g transform="" style="fill: rgb(255, 255, 255);">
<rect width="100" height="100"/>
</g></g><g transform="translate(280,210) scale(0.35,0.35)"><g transform="" style="fill: rgb(255, 255, 255);">
<g>
	<path d="M95.338,83.975C120.428,37.136,29.47-30.196,4.645,16.13C-20.399,62.878,70.625,130.076,95.338,83.975"/>
</g>
</g></g><g transform="translate(350,210) scale(0.35,0.35)"><g transform="" style="fill: rgb(255, 255, 255);">
<path d="M99.999,73.426C99.999,85.11,100,100,100,100s-34.008,0-49.953-0.001c-12.452,0.001-49.952,0-49.952,0V74.931
	c0,0-2.101-65.501,13.486-73.267C37.695-10.353,99.999,45.737,99.999,73.426z"/>
</g></g><g transform="translate(420,210) scale(0.35,0.35)"><g transform="" style="fill: rgb(255, 255, 255);">
<rect width="100" height="100"/>
</g></g><g transform="translate(490,210) scale(0.35,0.35)"><g transform="" style="fill: rgb(255, 255, 255);">
<g>
	<path d="M95.338,83.975C120.428,37.136,29.47-30.196,4.645,16.13C-20.399,62.878,70.625,130.076,95.338,83.975"/>
</g>
</g></g><g transform="translate(560,210) scale(0.35,0.35)"><g transform="" style="fill: rgb(255, 255, 255);">
<rect width="100" height="100"/>
</g></g><g transform="translate(630,210) scale(0.35,0.35)"><g transform="" style="fill: rgb(255, 255, 255);">
<path d="M99.999,73.426C99.999,85.11,100,100,100,100s-34.008,0-49.953-0.001c-12.452,0.001-49.952,0-49.952,0V74.931
	c0,0-2.101-65.501,13.486-73.267C37.695-10.353,99.999,45.737,99.999,73.426z"/>
</g></g><g transform="translate(700,210) scale(0.35,0.35)"><g transform="" style="fill: rgb(255, 255, 255);">
<g>
	<path d="M95.338,83.975C120.428,37.136,29.47-30.196,4.645,16.13C-20.399,62.878,70.625,130.076,95.338,83.975"/>
</g>
</g></g><g transform="translate(350,245) scale(0.35,0.35)"><g transform="" style="fill: rgb(255, 255, 255);">
<g>
	<path d="M100,0H0v65.625c0,9.506,3.353,17.611,10.059,24.316S24.87,100,34.375,100H100V0z"/>
</g>
</g></g><g transform="translate(385,245) scale(0.35,0.35)"><g transform="" style="fill: rgb(255, 255, 255);">
<rect width="100" height="100"/>
</g></g><g transform="translate(420,245) scale(0.35,0.35)"><g transform="" style="fill: rgb(255, 255, 255);">
<rect width="100" height="100"/>
</g></g><g transform="translate(455,245) scale(0.35,0.35)"><g transform="" style="fill: rgb(255, 255, 255);">
<g>
	<path d="M100,34.375c0-9.505-3.354-17.611-10.059-24.316S75.131,0,65.625,0H0v100h100V34.375z"/>
</g>
</g></g><g transform="translate(525,245) scale(0.35,0.35)"><g transform="" style="fill: rgb(255, 255, 255);">
<path d="M73.425,0.001C85.11,0.001,100,0,100,0s0,34.008-0.001,49.953c0.001,12.452,0,49.952,0,49.952H74.931
	c0,0-65.501,2.1-73.268-13.486C-10.352,62.305,45.736,0.001,73.425,0.001z"/>
</g></g><g transform="translate(560,245) scale(0.35,0.35)"><g transform="" style="fill: rgb(255, 255, 255);">
<rect width="100" height="100"/>
</g></g><g transform="translate(630,245) scale(0.35,0.35)"><g transform="" style="fill: rgb(255, 255, 255);">
<rect width="100" height="100"/>
</g></g><g transform="translate(665,245) scale(0.35,0.35)"><g transform="" style="fill: rgb(255, 255, 255);">
<g>
	<path d="M100,34.375c0-9.505-3.354-17.611-10.059-24.316S75.131,0,65.625,0H0v100h100V34.375z"/>
</g>
</g></g><g transform="translate(0,280) scale(0.35,0.35)"><g transform="" style="fill: rgb(255, 255, 255);">
<path d="M99.999,73.426C99.999,85.11,100,100,100,100s-34.008,0-49.953-0.001c-12.452,0.001-49.952,0-49.952,0V74.931
	c0,0-2.101-65.501,13.486-73.267C37.695-10.353,99.999,45.737,99.999,73.426z"/>
</g></g><g transform="translate(105,280) scale(0.35,0.35)"><g transform="" style="fill: rgb(255, 255, 255);">
<path d="M73.425,0.001C85.11,0.001,100,0,100,0s0,34.008-0.001,49.953c0.001,12.452,0,49.952,0,49.952H74.931
	c0,0-65.501,2.1-73.268-13.486C-10.352,62.305,45.736,0.001,73.425,0.001z"/>
</g></g><g transform="translate(140,280) scale(0.35,0.35)"><g transform="" style="fill: rgb(255, 255, 255);">
<rect width="100" height="100"/>
</g></g><g transform="translate(175,280) scale(0.35,0.35)"><g transform="" style="fill: rgb(255, 255, 255);">
<rect width="100" height="100"/>
</g></g><g transform="translate(210,280) scale(0.35,0.35)"><g transform="" style="fill: rgb(255, 255, 255);">
<rect width="100" height="100"/>
</g></g><g transform="translate(245,280) scale(0.35,0.35)"><g transform="" style="fill: rgb(255, 255, 255);">
<rect width="100" height="100"/>
</g></g><g transform="translate(280,280) scale(0.35,0.35)"><g transform="" style="fill: rgb(255, 255, 255);">
<rect width="100" height="100"/>
</g></g><g transform="translate(315,280) scale(0.35,0.35)"><g transform="" style="fill: rgb(255, 255, 255);">
<path d="M26.574,99.999C14.89,99.999,0,100,0,100s0-34.008,0.001-49.953c-0.001-12.453,0-49.953,0-49.953h25.068
	c0,0,64.501-2.101,72.268,13.486C109.354,37.695,54.264,99.999,26.574,99.999z"/>
</g></g><g transform="translate(455,280) scale(0.35,0.35)"><g transform="" style="fill: rgb(255, 255, 255);">
<rect width="100" height="100"/>
</g></g><g transform="translate(560,280) scale(0.35,0.35)"><g transform="" style="fill: rgb(255, 255, 255);">
<rect width="100" height="100"/>
</g></g><g transform="translate(595,280) scale(0.35,0.35)"><g transform="" style="fill: rgb(255, 255, 255);">
<rect width="100" height="100"/>
</g></g><g transform="translate(630,280) scale(0.35,0.35)"><g transform="" style="fill: rgb(255, 255, 255);">
<rect width="100" height="100"/>
</g></g><g transform="translate(665,280) scale(0.35,0.35)"><g transform="" style="fill: rgb(255, 255, 255);">
<rect width="100" height="100"/>
</g></g><g transform="translate(700,280) scale(0.35,0.35)"><g transform="" style="fill: rgb(255, 255, 255);">
<rect width="100" height="100"/>
</g></g><g transform="translate(735,280) scale(0.35,0.35)"><g transform="" style="fill: rgb(255, 255, 255);">
<path d="M26.574,99.999C14.89,99.999,0,100,0,100s0-34.008,0.001-49.953c-0.001-12.453,0-49.953,0-49.953h25.068
	c0,0,64.501-2.101,72.268,13.486C109.354,37.695,54.264,99.999,26.574,99.999z"/>
</g></g><g transform="translate(840,280) scale(0.35,0.35)"><g transform="" style="fill: rgb(255, 255, 255);">
<path d="M99.999,73.426C99.999,85.11,100,100,100,100s-34.008,0-49.953-0.001c-12.452,0.001-49.952,0-49.952,0V74.931
	c0,0-2.101-65.501,13.486-73.267C37.695-10.353,99.999,45.737,99.999,73.426z"/>
</g></g><g transform="translate(910,280) scale(0.35,0.35)"><g transform="" style="fill: rgb(255, 255, 255);">
<g>
	<path d="M100,34.375V0H34.375C24.87,0,16.764,3.353,10.059,10.059S0,24.87,0,34.375V100h100V34.375z"/>
</g>
</g></g><g transform="translate(945,280) scale(0.35,0.35)"><g transform="" style="fill: rgb(255, 255, 255);">
<rect width="100" height="100"/>
</g></g><g transform="translate(980,280) scale(0.35,0.35)"><g transform="" style="fill: rgb(255, 255, 255);">
<path d="M26.574,99.999C14.89,99.999,0,100,0,100s0-34.008,0.001-49.953c-0.001-12.453,0-49.953,0-49.953h25.068
	c0,0,64.501-2.101,72.268,13.486C109.354,37.695,54.264,99.999,26.574,99.999z"/>
</g></g><g transform="translate(0,315) scale(0.35,0.35)"><g transform="" style="fill: rgb(255, 255, 255);">
<rect width="100" height="100"/>
</g></g><g transform="translate(35,315) scale(0.35,0.35)"><g transform="" style="fill: rgb(255, 255, 255);">
<path d="M26.574,99.999C14.89,99.999,0,100,0,100s0-34.008,0.001-49.953c-0.001-12.453,0-49.953,0-49.953h25.068
	c0,0,64.501-2.101,72.268,13.486C109.354,37.695,54.264,99.999,26.574,99.999z"/>
</g></g><g transform="translate(175,315) scale(0.35,0.35)"><g transform="" style="fill: rgb(255, 255, 255);">
<path d="M0.001,25.574C0.001,13.89,0-1,0-1s34.008,0,49.953,0.001c12.452-0.001,49.952,0,49.952,0v25.068
	c0,0,2.101,65.501-13.486,73.267C62.305,109.353,0.001,53.264,0.001,25.574z"/>
</g></g><g transform="translate(280,315) scale(0.35,0.35)"><g transform="" style="fill: rgb(255, 255, 255);">
<path d="M0.001,25.574C0.001,13.89,0-1,0-1s34.008,0,49.953,0.001c12.452-0.001,49.952,0,49.952,0v25.068
	c0,0,2.101,65.501-13.486,73.267C62.305,109.353,0.001,53.264,0.001,25.574z"/>
</g></g><g transform="translate(455,315) scale(0.35,0.35)"><g transform="" style="fill: rgb(255, 255, 255);">
<rect width="100" height="100"/>
</g></g><g transform="translate(560,315) scale(0.35,0.35)"><g transform="" style="fill: rgb(255, 255, 255);">
<path d="M0.001,25.574C0.001,13.89,0-1,0-1s34.008,0,49.953,0.001c12.452-0.001,49.952,0,49.952,0v25.068
	c0,0,2.101,65.501-13.486,73.267C62.305,109.353,0.001,53.264,0.001,25.574z"/>
</g></g><g transform="translate(840,315) scale(0.35,0.35)"><g transform="" style="fill: rgb(255, 255, 255);">
<path d="M0.001,25.574C0.001,13.89,0-1,0-1s34.008,0,49.953,0.001c12.452-0.001,49.952,0,49.952,0v25.068
	c0,0,2.101,65.501-13.486,73.267C62.305,109.353,0.001,53.264,0.001,25.574z"/>
</g></g><g transform="translate(910,315) scale(0.35,0.35)"><g transform="" style="fill: rgb(255, 255, 255);">
<rect width="100" height="100"/>
</g></g><g transform="translate(945,315) scale(0.35,0.35)"><g transform="" style="fill: rgb(255, 255, 255);">
<g>
	<path d="M100,0H0v100h65.625c9.506,0,17.611-3.354,24.316-10.059S100,75.131,100,65.625V0z"/>
</g>
</g></g><g transform="translate(0,350) scale(0.35,0.35)"><g transform="" style="fill: rgb(255, 255, 255);">
<rect width="100" height="100"/>
</g></g><g transform="translate(70,350) scale(0.35,0.35)"><g transform="" style="fill: rgb(255, 255, 255);">
<g>
	<path d="M95.338,83.975C120.428,37.136,29.47-30.196,4.645,16.13C-20.399,62.878,70.625,130.076,95.338,83.975"/>
</g>
</g></g><g transform="translate(210,350) scale(0.35,0.35)"><g transform="" style="fill: rgb(255, 255, 255);">
<g>
	<path d="M95.338,83.975C120.428,37.136,29.47-30.196,4.645,16.13C-20.399,62.878,70.625,130.076,95.338,83.975"/>
</g>
</g></g><g transform="translate(315,350) scale(0.35,0.35)"><g transform="" style="fill: rgb(255, 255, 255);">
<g>
	<path d="M95.338,83.975C120.428,37.136,29.47-30.196,4.645,16.13C-20.399,62.878,70.625,130.076,95.338,83.975"/>
</g>
</g></g><g transform="translate(385,350) scale(0.35,0.35)"><g transform="" style="fill: rgb(255, 255, 255);">
<path d="M99.999,73.426C99.999,85.11,100,100,100,100s-34.008,0-49.953-0.001c-12.452,0.001-49.952,0-49.952,0V74.931
	c0,0-2.101-65.501,13.486-73.267C37.695-10.353,99.999,45.737,99.999,73.426z"/>
</g></g><g transform="translate(455,350) scale(0.35,0.35)"><g transform="" style="fill: rgb(255, 255, 255);">
<rect width="100" height="100"/>
</g></g><g transform="translate(525,350) scale(0.35,0.35)"><g transform="" style="fill: rgb(255, 255, 255);">
<g>
	<path d="M95.338,83.975C120.428,37.136,29.47-30.196,4.645,16.13C-20.399,62.878,70.625,130.076,95.338,83.975"/>
</g>
</g></g><g transform="translate(630,350) scale(0.35,0.35)"><g transform="" style="fill: rgb(255, 255, 255);">
<path d="M99.999,73.426C99.999,85.11,100,100,100,100s-34.008,0-49.953-0.001c-12.452,0.001-49.952,0-49.952,0V74.931
	c0,0-2.101-65.501,13.486-73.267C37.695-10.353,99.999,45.737,99.999,73.426z"/>
</g></g><g transform="translate(770,350) scale(0.35,0.35)"><g transform="" style="fill: rgb(255, 255, 255);">
<g>
	<path d="M95.338,83.975C120.428,37.136,29.47-30.196,4.645,16.13C-20.399,62.878,70.625,130.076,95.338,83.975"/>
</g>
</g></g><g transform="translate(910,350) scale(0.35,0.35)"><g transform="" style="fill: rgb(255, 255, 255);">
<path d="M0.001,25.574C0.001,13.89,0-1,0-1s34.008,0,49.953,0.001c12.452-0.001,49.952,0,49.952,0v25.068
	c0,0,2.101,65.501-13.486,73.267C62.305,109.353,0.001,53.264,0.001,25.574z"/>
</g></g><g transform="translate(0,385) scale(0.35,0.35)"><g transform="" style="fill: rgb(255, 255, 255);">
<g>
	<path d="M100,0H0v65.625c0,9.506,3.353,17.611,10.059,24.316S24.87,100,34.375,100H100V0z"/>
</g>
</g></g><g transform="translate(35,385) scale(0.35,0.35)"><g transform="" style="fill: rgb(255, 255, 255);">
<g>
	<path d="M100,34.375c0-9.505-3.354-17.611-10.059-24.316S75.131,0,65.625,0H0v100h100V34.375z"/>
</g>
</g></g><g transform="translate(175,385) scale(0.35,0.35)"><g transform="" style="fill: rgb(255, 255, 255);">
<path d="M99.999,73.426C99.999,85.11,100,100,100,100s-34.008,0-49.953-0.001c-12.452,0.001-49.952,0-49.952,0V74.931
	c0,0-2.101-65.501,13.486-73.267C37.695-10.353,99.999,45.737,99.999,73.426z"/>
</g></g><g transform="translate(245,385) scale(0.35,0.35)"><g transform="" style="fill: rgb(255, 255, 255);">
<g>
	<path d="M95.338,83.975C120.428,37.136,29.47-30.196,4.645,16.13C-20.399,62.878,70.625,130.076,95.338,83.975"/>
</g>
</g></g><g transform="translate(350,385) scale(0.35,0.35)"><g transform="" style="fill: rgb(255, 255, 255);">
<g>
	<path d="M100,34.375V0H34.375C24.87,0,16.764,3.353,10.059,10.059S0,24.87,0,34.375V100h100V34.375z"/>
</g>
</g></g><g transform="translate(385,385) scale(0.35,0.35)"><g transform="" style="fill: rgb(255, 255, 255);">
<rect width="100" height="100"/>
</g></g><g transform="translate(420,385) scale(0.35,0.35)"><g transform="" style="fill: rgb(255, 255, 255);">
<rect width="100" height="100"/>
</g></g><g transform="translate(455,385) scale(0.35,0.35)"><g transform="" style="fill: rgb(255, 255, 255);">
<rect width="100" height="100"/>
</g></g><g transform="translate(560,385) scale(0.35,0.35)"><g transform="" style="fill: rgb(255, 255, 255);">
<path d="M73.425,0.001C85.11,0.001,100,0,100,0s0,34.008-0.001,49.953c0.001,12.452,0,49.952,0,49.952H74.931
	c0,0-65.501,2.1-73.268-13.486C-10.352,62.305,45.736,0.001,73.425,0.001z"/>
</g></g><g transform="translate(595,385) scale(0.35,0.35)"><g transform="" style="fill: rgb(255, 255, 255);">
<rect width="100" height="100"/>
</g></g><g transform="translate(630,385) scale(0.35,0.35)"><g transform="" style="fill: rgb(255, 255, 255);">
<rect width="100" height="100"/>
</g></g><g transform="translate(875,385) scale(0.35,0.35)"><g transform="" style="fill: rgb(255, 255, 255);">
<g>
	<path d="M95.338,83.975C120.428,37.136,29.47-30.196,4.645,16.13C-20.399,62.878,70.625,130.076,95.338,83.975"/>
</g>
</g></g><g transform="translate(980,385) scale(0.35,0.35)"><g transform="" style="fill: rgb(255, 255, 255);">
<path d="M99.999,73.426C99.999,85.11,100,100,100,100s-34.008,0-49.953-0.001c-12.452,0.001-49.952,0-49.952,0V74.931
	c0,0-2.101-65.501,13.486-73.267C37.695-10.353,99.999,45.737,99.999,73.426z"/>
</g></g><g transform="translate(35,420) scale(0.35,0.35)"><g transform="" style="fill: rgb(255, 255, 255);">
<g>
	<path d="M100,0H0v65.625c0,9.506,3.353,17.611,10.059,24.316S24.87,100,34.375,100H100V0z"/>
</g>
</g></g><g transform="translate(70,420) scale(0.35,0.35)"><g transform="" style="fill: rgb(255, 255, 255);">
<rect width="100" height="100"/>
</g></g><g transform="translate(105,420) scale(0.35,0.35)"><g transform="" style="fill: rgb(255, 255, 255);">
<rect width="100" height="100"/>
</g></g><g transform="translate(140,420) scale(0.35,0.35)"><g transform="" style="fill: rgb(255, 255, 255);">
<rect width="100" height="100"/>
</g></g><g transform="translate(175,420) scale(0.35,0.35)"><g transform="" style="fill: rgb(255, 255, 255);">
<rect width="100" height="100"/>
</g></g><g transform="translate(210,420) scale(0.35,0.35)"><g transform="" style="fill: rgb(255, 255, 255);">
<path d="M26.574,99.999C14.89,99.999,0,100,0,100s0-34.008,0.001-49.953c-0.001-12.453,0-49.953,0-49.953h25.068
	c0,0,64.501-2.101,72.268,13.486C109.354,37.695,54.264,99.999,26.574,99.999z"/>
</g></g><g transform="translate(350,420) scale(0.35,0.35)"><g transform="" style="fill: rgb(255, 255, 255);">
<path d="M0.001,25.574C0.001,13.89,0-1,0-1s34.008,0,49.953,0.001c12.452-0.001,49.952,0,49.952,0v25.068
	c0,0,2.101,65.501-13.486,73.267C62.305,109.353,0.001,53.264,0.001,25.574z"/>
</g></g><g transform="translate(455,420) scale(0.35,0.35)"><g transform="" style="fill: rgb(255, 255, 255);">
<rect width="100" height="100"/>
</g></g><g transform="translate(525,420) scale(0.35,0.35)"><g transform="" style="fill: rgb(255, 255, 255);">
<path d="M99.999,73.426C99.999,85.11,100,100,100,100s-34.008,0-49.953-0.001c-12.452,0.001-49.952,0-49.952,0V74.931
	c0,0-2.101-65.501,13.486-73.267C37.695-10.353,99.999,45.737,99.999,73.426z"/>
</g></g><g transform="translate(630,420) scale(0.35,0.35)"><g transform="" style="fill: rgb(255, 255, 255);">
<rect width="100" height="100"/>
</g></g><g transform="translate(665,420) scale(0.35,0.35)"><g transform="" style="fill: rgb(255, 255, 255);">
<rect width="100" height="100"/>
</g></g><g transform="translate(700,420) scale(0.35,0.35)"><g transform="" style="fill: rgb(255, 255, 255);">
<path d="M26.574,99.999C14.89,99.999,0,100,0,100s0-34.008,0.001-49.953c-0.001-12.453,0-49.953,0-49.953h25.068
	c0,0,64.501-2.101,72.268,13.486C109.354,37.695,54.264,99.999,26.574,99.999z"/>
</g></g><g transform="translate(770,420) scale(0.35,0.35)"><g transform="" style="fill: rgb(255, 255, 255);">
<g>
	<path d="M100,34.375V0H34.375C24.87,0,16.764,3.353,10.059,10.059S0,24.87,0,34.375V100h100V34.375z"/>
</g>
</g></g><g transform="translate(805,420) scale(0.35,0.35)"><g transform="" style="fill: rgb(255, 255, 255);">
<g>
	<path d="M100,34.375c0-9.505-3.354-17.611-10.059-24.316S75.131,0,65.625,0H0v100h100V34.375z"/>
</g>
</g></g><g transform="translate(980,420) scale(0.35,0.35)"><g transform="" style="fill: rgb(255, 255, 255);">
<rect width="100" height="100"/>
</g></g><g transform="translate(140,455) scale(0.35,0.35)"><g transform="" style="fill: rgb(255, 255, 255);">
<g>
	<path d="M100,0H0v65.625c0,9.506,3.353,17.611,10.059,24.316S24.87,100,34.375,100H100V0z"/>
</g>
</g></g><g transform="translate(175,455) scale(0.35,0.35)"><g transform="" style="fill: rgb(255, 255, 255);">
<rect width="100" height="100"/>
</g></g><g transform="translate(245,455) scale(0.35,0.35)"><g transform="" style="fill: rgb(255, 255, 255);">
<g>
	<path d="M100,34.375V0H34.375C24.87,0,16.764,3.353,10.059,10.059S0,24.87,0,34.375V100h100V34.375z"/>
</g>
</g></g><g transform="translate(280,455) scale(0.35,0.35)"><g transform="" style="fill: rgb(255, 255, 255);">
<g>
	<path d="M100,34.375c0-9.505-3.354-17.611-10.059-24.316S75.131,0,65.625,0H0v100h100V34.375z"/>
</g>
</g></g><g transform="translate(385,455) scale(0.35,0.35)"><g transform="" style="fill: rgb(255, 255, 255);">
<g>
	<path d="M100,34.375V0H34.375C24.87,0,16.764,3.353,10.059,10.059S0,24.87,0,34.375V100h100V34.375z"/>
</g>
</g></g><g transform="translate(420,455) scale(0.35,0.35)"><g transform="" style="fill: rgb(255, 255, 255);">
<rect width="100" height="100"/>
</g></g><g transform="translate(455,455) scale(0.35,0.35)"><g transform="" style="fill: rgb(255, 255, 255);">
<rect width="100" height="100"/>
</g></g><g transform="translate(490,455) scale(0.35,0.35)"><g transform="" style="fill: rgb(255, 255, 255);">
<rect width="100" height="100"/>
</g></g><g transform="translate(525,455) scale(0.35,0.35)"><g transform="" style="fill: rgb(255, 255, 255);">
<rect width="100" height="100"/>
</g></g><g transform="translate(560,455) scale(0.35,0.35)"><g transform="" style="fill: rgb(255, 255, 255);">
<rect width="100" height="100"/>
</g></g><g transform="translate(595,455) scale(0.35,0.35)"><g transform="" style="fill: rgb(255, 255, 255);">
<rect width="100" height="100"/>
</g></g><g transform="translate(630,455) scale(0.35,0.35)"><g transform="" style="fill: rgb(255, 255, 255);">
<rect width="100" height="100"/>
</g></g><g transform="translate(665,455) scale(0.35,0.35)"><g transform="" style="fill: rgb(255, 255, 255);">
<rect width="100" height="100"/>
</g></g><g transform="translate(770,455) scale(0.35,0.35)"><g transform="" style="fill: rgb(255, 255, 255);">
<rect width="100" height="100"/>
</g></g><g transform="translate(805,455) scale(0.35,0.35)"><g transform="" style="fill: rgb(255, 255, 255);">
<rect width="100" height="100"/>
</g></g><g transform="translate(840,455) scale(0.35,0.35)"><g transform="" style="fill: rgb(255, 255, 255);">
<rect width="100" height="100"/>
</g></g><g transform="translate(875,455) scale(0.35,0.35)"><g transform="" style="fill: rgb(255, 255, 255);">
<rect width="100" height="100"/>
</g></g><g transform="translate(910,455) scale(0.35,0.35)"><g transform="" style="fill: rgb(255, 255, 255);">
<rect width="100" height="100"/>
</g></g><g transform="translate(945,455) scale(0.35,0.35)"><g transform="" style="fill: rgb(255, 255, 255);">
<rect width="100" height="100"/>
</g></g><g transform="translate(980,455) scale(0.35,0.35)"><g transform="" style="fill: rgb(255, 255, 255);">
<rect width="100" height="100"/>
</g></g><g transform="translate(35,490) scale(0.35,0.35)"><g transform="" style="fill: rgb(255, 255, 255);">
<g>
	<path d="M100,34.375V0H34.375C24.87,0,16.764,3.353,10.059,10.059S0,24.87,0,34.375V100h100V34.375z"/>
</g>
</g></g><g transform="translate(70,490) scale(0.35,0.35)"><g transform="" style="fill: rgb(255, 255, 255);">
<path d="M26.574,99.999C14.89,99.999,0,100,0,100s0-34.008,0.001-49.953c-0.001-12.453,0-49.953,0-49.953h25.068
	c0,0,64.501-2.101,72.268,13.486C109.354,37.695,54.264,99.999,26.574,99.999z"/>
</g></g><g transform="translate(175,490) scale(0.35,0.35)"><g transform="" style="fill: rgb(255, 255, 255);">
<rect width="100" height="100"/>
</g></g><g transform="translate(210,490) scale(0.35,0.35)"><g transform="" style="fill: rgb(255, 255, 255);">
<rect width="100" height="100"/>
</g></g><g transform="translate(245,490) scale(0.35,0.35)"><g transform="" style="fill: rgb(255, 255, 255);">
<rect width="100" height="100"/>
</g></g><g transform="translate(280,490) scale(0.35,0.35)"><g transform="" style="fill: rgb(255, 255, 255);">
<rect width="100" height="100"/>
</g></g><g transform="translate(315,490) scale(0.35,0.35)"><g transform="" style="fill: rgb(255, 255, 255);">
<path d="M26.574,99.999C14.89,99.999,0,100,0,100s0-34.008,0.001-49.953c-0.001-12.453,0-49.953,0-49.953h25.068
	c0,0,64.501-2.101,72.268,13.486C109.354,37.695,54.264,99.999,26.574,99.999z"/>
</g></g><g transform="translate(385,490) scale(0.35,0.35)"><g transform="" style="fill: rgb(255, 255, 255);">
<g>
	<path d="M100,0H0v65.625c0,9.506,3.353,17.611,10.059,24.316S24.87,100,34.375,100H100V0z"/>
</g>
</g></g><g transform="translate(420,490) scale(0.35,0.35)"><g transform="" style="fill: rgb(255, 255, 255);">
<rect width="100" height="100"/>
</g></g><g transform="translate(455,490) scale(0.35,0.35)"><g transform="" style="fill: rgb(255, 255, 255);">
<g>
	<path d="M100,0H0v100h65.625c9.506,0,17.611-3.354,24.316-10.059S100,75.131,100,65.625V0z"/>
</g>
</g></g><g transform="translate(525,490) scale(0.35,0.35)"><g transform="" style="fill: rgb(255, 255, 255);">
<g>
	<path d="M100,0H0v65.625c0,9.506,3.353,17.611,10.059,24.316S24.87,100,34.375,100H100V0z"/>
</g>
</g></g><g transform="translate(560,490) scale(0.35,0.35)"><g transform="" style="fill: rgb(255, 255, 255);">
<rect width="100" height="100"/>
</g></g><g transform="translate(595,490) scale(0.35,0.35)"><g transform="" style="fill: rgb(255, 255, 255);">
<g>
	<path d="M100,0H0v100h65.625c9.506,0,17.611-3.354,24.316-10.059S100,75.131,100,65.625V0z"/>
</g>
</g></g><g transform="translate(665,490) scale(0.35,0.35)"><g transform="" style="fill: rgb(255, 255, 255);">
<rect width="100" height="100"/>
</g></g><g transform="translate(770,490) scale(0.35,0.35)"><g transform="" style="fill: rgb(255, 255, 255);">
<g>
	<path d="M100,0H0v65.625c0,9.506,3.353,17.611,10.059,24.316S24.87,100,34.375,100H100V0z"/>
</g>
</g></g><g transform="translate(805,490) scale(0.35,0.35)"><g transform="" style="fill: rgb(255, 255, 255);">
<rect width="100" height="100"/>
</g></g><g transform="translate(910,490) scale(0.35,0.35)"><g transform="" style="fill: rgb(255, 255, 255);">
<rect width="100" height="100"/>
</g></g><g transform="translate(980,490) scale(0.35,0.35)"><g transform="" style="fill: rgb(255, 255, 255);">
<rect width="100" height="100"/>
</g></g><g transform="translate(0,525) scale(0.35,0.35)"><g transform="" style="fill: rgb(255, 255, 255);">
<path d="M73.425,0.001C85.11,0.001,100,0,100,0s0,34.008-0.001,49.953c0.001,12.452,0,49.952,0,49.952H74.931
	c0,0-65.501,2.1-73.268-13.486C-10.352,62.305,45.736,0.001,73.425,0.001z"/>
</g></g><g transform="translate(35,525) scale(0.35,0.35)"><g transform="" style="fill: rgb(255, 255, 255);">
<rect width="100" height="100"/>
</g></g><g transform="translate(140,525) scale(0.35,0.35)"><g transform="" style="fill: rgb(255, 255, 255);">
<g>
	<path d="M100,34.375V0H34.375C24.87,0,16.764,3.353,10.059,10.059S0,24.87,0,34.375V100h100V34.375z"/>
</g>
</g></g><g transform="translate(175,525) scale(0.35,0.35)"><g transform="" style="fill: rgb(255, 255, 255);">
<rect width="100" height="100"/>
</g></g><g transform="translate(245,525) scale(0.35,0.35)"><g transform="" style="fill: rgb(255, 255, 255);">
<rect width="100" height="100"/>
</g></g><g transform="translate(350,525) scale(0.35,0.35)"><g transform="" style="fill: rgb(255, 255, 255);">
<g>
	<path d="M95.338,83.975C120.428,37.136,29.47-30.196,4.645,16.13C-20.399,62.878,70.625,130.076,95.338,83.975"/>
</g>
</g></g><g transform="translate(560,525) scale(0.35,0.35)"><g transform="" style="fill: rgb(255, 255, 255);">
<path d="M0.001,25.574C0.001,13.89,0-1,0-1s34.008,0,49.953,0.001c12.452-0.001,49.952,0,49.952,0v25.068
	c0,0,2.101,65.501-13.486,73.267C62.305,109.353,0.001,53.264,0.001,25.574z"/>
</g></g><g transform="translate(665,525) scale(0.35,0.35)"><g transform="" style="fill: rgb(255, 255, 255);">
<g>
	<path d="M100,0H0v65.625c0,9.506,3.353,17.611,10.059,24.316S24.87,100,34.375,100H100V0z"/>
</g>
</g></g><g transform="translate(700,525) scale(0.35,0.35)"><g transform="" style="fill: rgb(255, 255, 255);">
<path d="M26.574,99.999C14.89,99.999,0,100,0,100s0-34.008,0.001-49.953c-0.001-12.453,0-49.953,0-49.953h25.068
	c0,0,64.501-2.101,72.268,13.486C109.354,37.695,54.264,99.999,26.574,99.999z"/>
</g></g><g transform="translate(805,525) scale(0.35,0.35)"><g transform="" style="fill: rgb(255, 255, 255);">
<rect width="100" height="100"/>
</g></g><g transform="translate(840,525) scale(0.35,0.35)"><g transform="" style="fill: rgb(255, 255, 255);">
<path d="M26.574,99.999C14.89,99.999,0,100,0,100s0-34.008,0.001-49.953c-0.001-12.453,0-49.953,0-49.953h25.068
	c0,0,64.501-2.101,72.268,13.486C109.354,37.695,54.264,99.999,26.574,99.999z"/>
</g></g><g transform="translate(910,525) scale(0.35,0.35)"><g transform="" style="fill: rgb(255, 255, 255);">
<path d="M0.001,25.574C0.001,13.89,0-1,0-1s34.008,0,49.953,0.001c12.452-0.001,49.952,0,49.952,0v25.068
	c0,0,2.101,65.501-13.486,73.267C62.305,109.353,0.001,53.264,0.001,25.574z"/>
</g></g><g transform="translate(980,525) scale(0.35,0.35)"><g transform="" style="fill: rgb(255, 255, 255);">
<path d="M0.001,25.574C0.001,13.89,0-1,0-1s34.008,0,49.953,0.001c12.452-0.001,49.952,0,49.952,0v25.068
	c0,0,2.101,65.501-13.486,73.267C62.305,109.353,0.001,53.264,0.001,25.574z"/>
</g></g><g transform="translate(35,560) scale(0.35,0.35)"><g transform="" style="fill: rgb(255, 255, 255);">
<g>
	<path d="M100,0H0v65.625c0,9.506,3.353,17.611,10.059,24.316S24.87,100,34.375,100H100V0z"/>
</g>
</g></g><g transform="translate(70,560) scale(0.35,0.35)"><g transform="" style="fill: rgb(255, 255, 255);">
<rect width="100" height="100"/>
</g></g><g transform="translate(105,560) scale(0.35,0.35)"><g transform="" style="fill: rgb(255, 255, 255);">
<rect width="100" height="100"/>
</g></g><g transform="translate(140,560) scale(0.35,0.35)"><g transform="" style="fill: rgb(255, 255, 255);">
<rect width="100" height="100"/>
</g></g><g transform="translate(175,560) scale(0.35,0.35)"><g transform="" style="fill: rgb(255, 255, 255);">
<rect width="100" height="100"/>
</g></g><g transform="translate(210,560) scale(0.35,0.35)"><g transform="" style="fill: rgb(255, 255, 255);">
<rect width="100" height="100"/>
</g></g><g transform="translate(245,560) scale(0.35,0.35)"><g transform="" style="fill: rgb(255, 255, 255);">
<rect width="100" height="100"/>
</g></g><g transform="translate(280,560) scale(0.35,0.35)"><g transform="" style="fill: rgb(255, 255, 255);">
<rect width="100" height="100"/>
</g></g><g transform="translate(315,560) scale(0.35,0.35)"><g transform="" style="fill: rgb(255, 255, 255);">
<path d="M26.574,99.999C14.89,99.999,0,100,0,100s0-34.008,0.001-49.953c-0.001-12.453,0-49.953,0-49.953h25.068
	c0,0,64.501-2.101,72.268,13.486C109.354,37.695,54.264,99.999,26.574,99.999z"/>
</g></g><g transform="translate(385,560) scale(0.35,0.35)"><g transform="" style="fill: rgb(255, 255, 255);">
<g>
	<path d="M100,34.375V0H34.375C24.87,0,16.764,3.353,10.059,10.059S0,24.87,0,34.375V100h100V34.375z"/>
</g>
</g></g><g transform="translate(420,560) scale(0.35,0.35)"><g transform="" style="fill: rgb(255, 255, 255);">
<g>
	<path d="M100,34.375c0-9.505-3.354-17.611-10.059-24.316S75.131,0,65.625,0H0v100h100V34.375z"/>
</g>
</g></g><g transform="translate(490,560) scale(0.35,0.35)"><g transform="" style="fill: rgb(255, 255, 255);">
<path d="M99.999,73.426C99.999,85.11,100,100,100,100s-34.008,0-49.953-0.001c-12.452,0.001-49.952,0-49.952,0V74.931
	c0,0-2.101-65.501,13.486-73.267C37.695-10.353,99.999,45.737,99.999,73.426z"/>
</g></g><g transform="translate(805,560) scale(0.35,0.35)"><g transform="" style="fill: rgb(255, 255, 255);">
<path d="M0.001,25.574C0.001,13.89,0-1,0-1s34.008,0,49.953,0.001c12.452-0.001,49.952,0,49.952,0v25.068
	c0,0,2.101,65.501-13.486,73.267C62.305,109.353,0.001,53.264,0.001,25.574z"/>
</g></g><g transform="translate(875,560) scale(0.35,0.35)"><g transform="" style="fill: rgb(255, 255, 255);">
<g>
	<path d="M95.338,83.975C120.428,37.136,29.47-30.196,4.645,16.13C-20.399,62.878,70.625,130.076,95.338,83.975"/>
</g>
</g></g><g transform="translate(0,595) scale(0.35,0.35)"><g transform="" style="fill: rgb(255, 255, 255);">
<path d="M99.999,73.426C99.999,85.11,100,100,100,100s-34.008,0-49.953-0.001c-12.452,0.001-49.952,0-49.952,0V74.931
	c0,0-2.101-65.501,13.486-73.267C37.695-10.353,99.999,45.737,99.999,73.426z"/>
</g></g><g transform="translate(105,595) scale(0.35,0.35)"><g transform="" style="fill: rgb(255, 255, 255);">
<rect width="100" height="100"/>
</g></g><g transform="translate(175,595) scale(0.35,0.35)"><g transform="" style="fill: rgb(255, 255, 255);">
<rect width="100" height="100"/>
</g></g><g transform="translate(385,595) scale(0.35,0.35)"><g transform="" style="fill: rgb(255, 255, 255);">
<rect width="100" height="100"/>
</g></g><g transform="translate(420,595) scale(0.35,0.35)"><g transform="" style="fill: rgb(255, 255, 255);">
<rect width="100" height="100"/>
</g></g><g transform="translate(455,595) scale(0.35,0.35)"><g transform="" style="fill: rgb(255, 255, 255);">
<rect width="100" height="100"/>
</g></g><g transform="translate(490,595) scale(0.35,0.35)"><g transform="" style="fill: rgb(255, 255, 255);">
<rect width="100" height="100"/>
</g></g><g transform="translate(525,595) scale(0.35,0.35)"><g transform="" style="fill: rgb(255, 255, 255);">
<g>
	<path d="M100,34.375c0-9.505-3.354-17.611-10.059-24.316S75.131,0,65.625,0H0v100h100V34.375z"/>
</g>
</g></g><g transform="translate(630,595) scale(0.35,0.35)"><g transform="" style="fill: rgb(255, 255, 255);">
<g>
	<path d="M95.338,83.975C120.428,37.136,29.47-30.196,4.645,16.13C-20.399,62.878,70.625,130.076,95.338,83.975"/>
</g>
</g></g><g transform="translate(700,595) scale(0.35,0.35)"><g transform="" style="fill: rgb(255, 255, 255);">
<g>
	<path d="M100,34.375V0H34.375C24.87,0,16.764,3.353,10.059,10.059S0,24.87,0,34.375V100h100V34.375z"/>
</g>
</g></g><g transform="translate(735,595) scale(0.35,0.35)"><g transform="" style="fill: rgb(255, 255, 255);">
<g>
	<path d="M100,34.375c0-9.505-3.354-17.611-10.059-24.316S75.131,0,65.625,0H0v100h100V34.375z"/>
</g>
</g></g><g transform="translate(840,595) scale(0.35,0.35)"><g transform="" style="fill: rgb(255, 255, 255);">
<g>
	<path d="M95.338,83.975C120.428,37.136,29.47-30.196,4.645,16.13C-20.399,62.878,70.625,130.076,95.338,83.975"/>
</g>
</g></g><g transform="translate(910,595) scale(0.35,0.35)"><g transform="" style="fill: rgb(255, 255, 255);">
<path d="M73.425,0.001C85.11,0.001,100,0,100,0s0,34.008-0.001,49.953c0.001,12.452,0,49.952,0,49.952H74.931
	c0,0-65.501,2.1-73.268-13.486C-10.352,62.305,45.736,0.001,73.425,0.001z"/>
</g></g><g transform="translate(945,595) scale(0.35,0.35)"><g transform="" style="fill: rgb(255, 255, 255);">
<path d="M26.574,99.999C14.89,99.999,0,100,0,100s0-34.008,0.001-49.953c-0.001-12.453,0-49.953,0-49.953h25.068
	c0,0,64.501-2.101,72.268,13.486C109.354,37.695,54.264,99.999,26.574,99.999z"/>
</g></g><g transform="translate(0,630) scale(0.35,0.35)"><g transform="" style="fill: rgb(255, 255, 255);">
<rect width="100" height="100"/>
</g></g><g transform="translate(35,630) scale(0.35,0.35)"><g transform="" style="fill: rgb(255, 255, 255);">
<g>
	<path d="M100,34.375c0-9.505-3.354-17.611-10.059-24.316S75.131,0,65.625,0H0v100h100V34.375z"/>
</g>
</g></g><g transform="translate(105,630) scale(0.35,0.35)"><g transform="" style="fill: rgb(255, 255, 255);">
<path d="M0.001,25.574C0.001,13.89,0-1,0-1s34.008,0,49.953,0.001c12.452-0.001,49.952,0,49.952,0v25.068
	c0,0,2.101,65.501-13.486,73.267C62.305,109.353,0.001,53.264,0.001,25.574z"/>
</g></g><g transform="translate(175,630) scale(0.35,0.35)"><g transform="" style="fill: rgb(255, 255, 255);">
<g>
	<path d="M100,0H0v65.625c0,9.506,3.353,17.611,10.059,24.316S24.87,100,34.375,100H100V0z"/>
</g>
</g></g><g transform="translate(210,630) scale(0.35,0.35)"><g transform="" style="fill: rgb(255, 255, 255);">
<path d="M26.574,99.999C14.89,99.999,0,100,0,100s0-34.008,0.001-49.953c-0.001-12.453,0-49.953,0-49.953h25.068
	c0,0,64.501-2.101,72.268,13.486C109.354,37.695,54.264,99.999,26.574,99.999z"/>
</g></g><g transform="translate(315,630) scale(0.35,0.35)"><g transform="" style="fill: rgb(255, 255, 255);">
<path d="M73.425,0.001C85.11,0.001,100,0,100,0s0,34.008-0.001,49.953c0.001,12.452,0,49.952,0,49.952H74.931
	c0,0-65.501,2.1-73.268-13.486C-10.352,62.305,45.736,0.001,73.425,0.001z"/>
</g></g><g transform="translate(350,630) scale(0.35,0.35)"><g transform="" style="fill: rgb(255, 255, 255);">
<rect width="100" height="100"/>
</g></g><g transform="translate(385,630) scale(0.35,0.35)"><g transform="" style="fill: rgb(255, 255, 255);">
<rect width="100" height="100"/>
</g></g><g transform="translate(420,630) scale(0.35,0.35)"><g transform="" style="fill: rgb(255, 255, 255);">
<rect width="100" height="100"/>
</g></g><g transform="translate(525,630) scale(0.35,0.35)"><g transform="" style="fill: rgb(255, 255, 255);">
<g>
	<path d="M100,0H0v65.625c0,9.506,3.353,17.611,10.059,24.316S24.87,100,34.375,100H100V0z"/>
</g>
</g></g><g transform="translate(560,630) scale(0.35,0.35)"><g transform="" style="fill: rgb(255, 255, 255);">
<rect width="100" height="100"/>
</g></g><g transform="translate(595,630) scale(0.35,0.35)"><g transform="" style="fill: rgb(255, 255, 255);">
<path d="M26.574,99.999C14.89,99.999,0,100,0,100s0-34.008,0.001-49.953c-0.001-12.453,0-49.953,0-49.953h25.068
	c0,0,64.501-2.101,72.268,13.486C109.354,37.695,54.264,99.999,26.574,99.999z"/>
</g></g><g transform="translate(665,630) scale(0.35,0.35)"><g transform="" style="fill: rgb(255, 255, 255);">
<path d="M73.425,0.001C85.11,0.001,100,0,100,0s0,34.008-0.001,49.953c0.001,12.452,0,49.952,0,49.952H74.931
	c0,0-65.501,2.1-73.268-13.486C-10.352,62.305,45.736,0.001,73.425,0.001z"/>
</g></g><g transform="translate(700,630) scale(0.35,0.35)"><g transform="" style="fill: rgb(255, 255, 255);">
<rect width="100" height="100"/>
</g></g><g transform="translate(735,630) scale(0.35,0.35)"><g transform="" style="fill: rgb(255, 255, 255);">
<rect width="100" height="100"/>
</g></g><g transform="translate(770,630) scale(0.35,0.35)"><g transform="" style="fill: rgb(255, 255, 255);">
<rect width="100" height="100"/>
</g></g><g transform="translate(805,630) scale(0.35,0.35)"><g transform="" style="fill: rgb(255, 255, 255);">
<path d="M26.574,99.999C14.89,99.999,0,100,0,100s0-34.008,0.001-49.953c-0.001-12.453,0-49.953,0-49.953h25.068
	c0,0,64.501-2.101,72.268,13.486C109.354,37.695,54.264,99.999,26.574,99.999z"/>
</g></g><g transform="translate(875,630) scale(0.35,0.35)"><g transform="" style="fill: rgb(255, 255, 255);">
<path d="M99.999,73.426C99.999,85.11,100,100,100,100s-34.008,0-49.953-0.001c-12.452,0.001-49.952,0-49.952,0V74.931
	c0,0-2.101-65.501,13.486-73.267C37.695-10.353,99.999,45.737,99.999,73.426z"/>
</g></g><g transform="translate(980,630) scale(0.35,0.35)"><g transform="" style="fill: rgb(255, 255, 255);">
<g>
	<path d="M95.338,83.975C120.428,37.136,29.47-30.196,4.645,16.13C-20.399,62.878,70.625,130.076,95.338,83.975"/>
</g>
</g></g><g transform="translate(0,665) scale(0.35,0.35)"><g transform="" style="fill: rgb(255, 255, 255);">
<rect width="100" height="100"/>
</g></g><g transform="translate(35,665) scale(0.35,0.35)"><g transform="" style="fill: rgb(255, 255, 255);">
<rect width="100" height="100"/>
</g></g><g transform="translate(245,665) scale(0.35,0.35)"><g transform="" style="fill: rgb(255, 255, 255);">
<g>
	<path d="M95.338,83.975C120.428,37.136,29.47-30.196,4.645,16.13C-20.399,62.878,70.625,130.076,95.338,83.975"/>
</g>
</g></g><g transform="translate(385,665) scale(0.35,0.35)"><g transform="" style="fill: rgb(255, 255, 255);">
<g>
	<path d="M100,0H0v65.625c0,9.506,3.353,17.611,10.059,24.316S24.87,100,34.375,100H100V0z"/>
</g>
</g></g><g transform="translate(420,665) scale(0.35,0.35)"><g transform="" style="fill: rgb(255, 255, 255);">
<g>
	<path d="M100,0H0v100h65.625c9.506,0,17.611-3.354,24.316-10.059S100,75.131,100,65.625V0z"/>
</g>
</g></g><g transform="translate(490,665) scale(0.35,0.35)"><g transform="" style="fill: rgb(255, 255, 255);">
<path d="M99.999,73.426C99.999,85.11,100,100,100,100s-34.008,0-49.953-0.001c-12.452,0.001-49.952,0-49.952,0V74.931
	c0,0-2.101-65.501,13.486-73.267C37.695-10.353,99.999,45.737,99.999,73.426z"/>
</g></g><g transform="translate(770,665) scale(0.35,0.35)"><g transform="" style="fill: rgb(255, 255, 255);">
<rect width="100" height="100"/>
</g></g><g transform="translate(875,665) scale(0.35,0.35)"><g transform="" style="fill: rgb(255, 255, 255);">
<rect width="100" height="100"/>
</g></g><g transform="translate(910,665) scale(0.35,0.35)"><g transform="" style="fill: rgb(255, 255, 255);">
<g>
	<path d="M100,34.375c0-9.505-3.354-17.611-10.059-24.316S75.131,0,65.625,0H0v100h100V34.375z"/>
</g>
</g></g><g transform="translate(0,700) scale(0.35,0.35)"><g transform="" style="fill: rgb(255, 255, 255);">
<g>
	<path d="M100,0H0v65.625c0,9.506,3.353,17.611,10.059,24.316S24.87,100,34.375,100H100V0z"/>
</g>
</g></g><g transform="translate(35,700) scale(0.35,0.35)"><g transform="" style="fill: rgb(255, 255, 255);">
<rect width="100" height="100"/>
</g></g><g transform="translate(70,700) scale(0.35,0.35)"><g transform="" style="fill: rgb(255, 255, 255);">
<path d="M26.574,99.999C14.89,99.999,0,100,0,100s0-34.008,0.001-49.953c-0.001-12.453,0-49.953,0-49.953h25.068
	c0,0,64.501-2.101,72.268,13.486C109.354,37.695,54.264,99.999,26.574,99.999z"/>
</g></g><g transform="translate(175,700) scale(0.35,0.35)"><g transform="" style="fill: rgb(255, 255, 255);">
<path d="M73.425,0.001C85.11,0.001,100,0,100,0s0,34.008-0.001,49.953c0.001,12.452,0,49.952,0,49.952H74.931
	c0,0-65.501,2.1-73.268-13.486C-10.352,62.305,45.736,0.001,73.425,0.001z"/>
</g></g><g transform="translate(210,700) scale(0.35,0.35)"><g transform="" style="fill: rgb(255, 255, 255);">
<path d="M26.574,99.999C14.89,99.999,0,100,0,100s0-34.008,0.001-49.953c-0.001-12.453,0-49.953,0-49.953h25.068
	c0,0,64.501-2.101,72.268,13.486C109.354,37.695,54.264,99.999,26.574,99.999z"/>
</g></g><g transform="translate(350,700) scale(0.35,0.35)"><g transform="" style="fill: rgb(255, 255, 255);">
<g>
	<path d="M95.338,83.975C120.428,37.136,29.47-30.196,4.645,16.13C-20.399,62.878,70.625,130.076,95.338,83.975"/>
</g>
</g></g><g transform="translate(455,700) scale(0.35,0.35)"><g transform="" style="fill: rgb(255, 255, 255);">
<path d="M73.425,0.001C85.11,0.001,100,0,100,0s0,34.008-0.001,49.953c0.001,12.452,0,49.952,0,49.952H74.931
	c0,0-65.501,2.1-73.268-13.486C-10.352,62.305,45.736,0.001,73.425,0.001z"/>
</g></g><g transform="translate(490,700) scale(0.35,0.35)"><g transform="" style="fill: rgb(255, 255, 255);">
<rect width="100" height="100"/>
</g></g><g transform="translate(525,700) scale(0.35,0.35)"><g transform="" style="fill: rgb(255, 255, 255);">
<g>
	<path d="M100,34.375c0-9.505-3.354-17.611-10.059-24.316S75.131,0,65.625,0H0v100h100V34.375z"/>
</g>
</g></g><g transform="translate(595,700) scale(0.35,0.35)"><g transform="" style="fill: rgb(255, 255, 255);">
<path d="M99.999,73.426C99.999,85.11,100,100,100,100s-34.008,0-49.953-0.001c-12.452,0.001-49.952,0-49.952,0V74.931
	c0,0-2.101-65.501,13.486-73.267C37.695-10.353,99.999,45.737,99.999,73.426z"/>
</g></g><g transform="translate(665,700) scale(0.35,0.35)"><g transform="" style="fill: rgb(255, 255, 255);">
<path d="M73.425,0.001C85.11,0.001,100,0,100,0s0,34.008-0.001,49.953c0.001,12.452,0,49.952,0,49.952H74.931
	c0,0-65.501,2.1-73.268-13.486C-10.352,62.305,45.736,0.001,73.425,0.001z"/>
</g></g><g transform="translate(700,700) scale(0.35,0.35)"><g transform="" style="fill: rgb(255, 255, 255);">
<rect width="100" height="100"/>
</g></g><g transform="translate(735,700) scale(0.35,0.35)"><g transform="" style="fill: rgb(255, 255, 255);">
<rect width="100" height="100"/>
</g></g><g transform="translate(770,700) scale(0.35,0.35)"><g transform="" style="fill: rgb(255, 255, 255);">
<rect width="100" height="100"/>
</g></g><g transform="translate(805,700) scale(0.35,0.35)"><g transform="" style="fill: rgb(255, 255, 255);">
<rect width="100" height="100"/>
</g></g><g transform="translate(840,700) scale(0.35,0.35)"><g transform="" style="fill: rgb(255, 255, 255);">
<rect width="100" height="100"/>
</g></g><g transform="translate(875,700) scale(0.35,0.35)"><g transform="" style="fill: rgb(255, 255, 255);">
<rect width="100" height="100"/>
</g></g><g transform="translate(910,700) scale(0.35,0.35)"><g transform="" style="fill: rgb(255, 255, 255);">
<rect width="100" height="100"/>
</g></g><g transform="translate(945,700) scale(0.35,0.35)"><g transform="" style="fill: rgb(255, 255, 255);">
<path d="M26.574,99.999C14.89,99.999,0,100,0,100s0-34.008,0.001-49.953c-0.001-12.453,0-49.953,0-49.953h25.068
	c0,0,64.501-2.101,72.268,13.486C109.354,37.695,54.264,99.999,26.574,99.999z"/>
</g></g><g transform="translate(280,735) scale(0.35,0.35)"><g transform="" style="fill: rgb(255, 255, 255);">
<g>
	<path d="M100,34.375V0H34.375C24.87,0,16.764,3.353,10.059,10.059S0,24.87,0,34.375V100h100V34.375z"/>
</g>
</g></g><g transform="translate(315,735) scale(0.35,0.35)"><g transform="" style="fill: rgb(255, 255, 255);">
<path d="M26.574,99.999C14.89,99.999,0,100,0,100s0-34.008,0.001-49.953c-0.001-12.453,0-49.953,0-49.953h25.068
	c0,0,64.501-2.101,72.268,13.486C109.354,37.695,54.264,99.999,26.574,99.999z"/>
</g></g><g transform="translate(420,735) scale(0.35,0.35)"><g transform="" style="fill: rgb(255, 255, 255);">
<path d="M99.999,73.426C99.999,85.11,100,100,100,100s-34.008,0-49.953-0.001c-12.452,0.001-49.952,0-49.952,0V74.931
	c0,0-2.101-65.501,13.486-73.267C37.695-10.353,99.999,45.737,99.999,73.426z"/>
</g></g><g transform="translate(490,735) scale(0.35,0.35)"><g transform="" style="fill: rgb(255, 255, 255);">
<rect width="100" height="100"/>
</g></g><g transform="translate(525,735) scale(0.35,0.35)"><g transform="" style="fill: rgb(255, 255, 255);">
<rect width="100" height="100"/>
</g></g><g transform="translate(595,735) scale(0.35,0.35)"><g transform="" style="fill: rgb(255, 255, 255);">
<g>
	<path d="M100,0H0v65.625c0,9.506,3.353,17.611,10.059,24.316S24.87,100,34.375,100H100V0z"/>
</g>
</g></g><g transform="translate(630,735) scale(0.35,0.35)"><g transform="" style="fill: rgb(255, 255, 255);">
<path d="M26.574,99.999C14.89,99.999,0,100,0,100s0-34.008,0.001-49.953c-0.001-12.453,0-49.953,0-49.953h25.068
	c0,0,64.501-2.101,72.268,13.486C109.354,37.695,54.264,99.999,26.574,99.999z"/>
</g></g><g transform="translate(700,735) scale(0.35,0.35)"><g transform="" style="fill: rgb(255, 255, 255);">
<rect width="100" height="100"/>
</g></g><g transform="translate(840,735) scale(0.35,0.35)"><g transform="" style="fill: rgb(255, 255, 255);">
<rect width="100" height="100"/>
</g></g><g transform="translate(875,735) scale(0.35,0.35)"><g transform="" style="fill: rgb(255, 255, 255);">
<rect width="100" height="100"/>
</g></g><g transform="translate(280,770) scale(0.35,0.35)"><g transform="" style="fill: rgb(255, 255, 255);">
<rect width="100" height="100"/>
</g></g><g transform="translate(350,770) scale(0.35,0.35)"><g transform="" style="fill: rgb(255, 255, 255);">
<path d="M99.999,73.426C99.999,85.11,100,100,100,100s-34.008,0-49.953-0.001c-12.452,0.001-49.952,0-49.952,0V74.931
	c0,0-2.101-65.501,13.486-73.267C37.695-10.353,99.999,45.737,99.999,73.426z"/>
</g></g><g transform="translate(420,770) scale(0.35,0.35)"><g transform="" style="fill: rgb(255, 255, 255);">
<path d="M0.001,25.574C0.001,13.89,0-1,0-1s34.008,0,49.953,0.001c12.452-0.001,49.952,0,49.952,0v25.068
	c0,0,2.101,65.501-13.486,73.267C62.305,109.353,0.001,53.264,0.001,25.574z"/>
</g></g><g transform="translate(490,770) scale(0.35,0.35)"><g transform="" style="fill: rgb(255, 255, 255);">
<rect width="100" height="100"/>
</g></g><g transform="translate(525,770) scale(0.35,0.35)"><g transform="" style="fill: rgb(255, 255, 255);">
<rect width="100" height="100"/>
</g></g><g transform="translate(700,770) scale(0.35,0.35)"><g transform="" style="fill: rgb(255, 255, 255);">
<rect width="100" height="100"/>
</g></g><g transform="translate(770,770) scale(0.35,0.35)"><g transform="" style="fill: rgb(255, 255, 255);">
<g>
	<path d="M95.338,83.975C120.428,37.136,29.47-30.196,4.645,16.13C-20.399,62.878,70.625,130.076,95.338,83.975"/>
</g>
</g></g><g transform="translate(840,770) scale(0.35,0.35)"><g transform="" style="fill: rgb(255, 255, 255);">
<rect width="100" height="100"/>
</g></g><g transform="translate(875,770) scale(0.35,0.35)"><g transform="" style="fill: rgb(255, 255, 255);">
<g>
	<path d="M100,0H0v100h65.625c9.506,0,17.611-3.354,24.316-10.059S100,75.131,100,65.625V0z"/>
</g>
</g></g><g transform="translate(280,805) scale(0.35,0.35)"><g transform="" style="fill: rgb(255, 255, 255);">
<rect width="100" height="100"/>
</g></g><g transform="translate(315,805) scale(0.35,0.35)"><g transform="" style="fill: rgb(255, 255, 255);">
<rect width="100" height="100"/>
</g></g><g transform="translate(350,805) scale(0.35,0.35)"><g transform="" style="fill: rgb(255, 255, 255);">
<rect width="100" height="100"/>
</g></g><g transform="translate(385,805) scale(0.35,0.35)"><g transform="" style="fill: rgb(255, 255, 255);">
<g>
	<path d="M100,34.375c0-9.505-3.354-17.611-10.059-24.316S75.131,0,65.625,0H0v100h100V34.375z"/>
</g>
</g></g><g transform="translate(490,805) scale(0.35,0.35)"><g transform="" style="fill: rgb(255, 255, 255);">
<rect width="100" height="100"/>
</g></g><g transform="translate(525,805) scale(0.35,0.35)"><g transform="" style="fill: rgb(255, 255, 255);">
<g>
	<path d="M100,0H0v100h65.625c9.506,0,17.611-3.354,24.316-10.059S100,75.131,100,65.625V0z"/>
</g>
</g></g><g transform="translate(595,805) scale(0.35,0.35)"><g transform="" style="fill: rgb(255, 255, 255);">
<g>
	<path d="M95.338,83.975C120.428,37.136,29.47-30.196,4.645,16.13C-20.399,62.878,70.625,130.076,95.338,83.975"/>
</g>
</g></g><g transform="translate(665,805) scale(0.35,0.35)"><g transform="" style="fill: rgb(255, 255, 255);">
<g>
	<path d="M100,34.375V0H34.375C24.87,0,16.764,3.353,10.059,10.059S0,24.87,0,34.375V100h100V34.375z"/>
</g>
</g></g><g transform="translate(700,805) scale(0.35,0.35)"><g transform="" style="fill: rgb(255, 255, 255);">
<rect width="100" height="100"/>
</g></g><g transform="translate(840,805) scale(0.35,0.35)"><g transform="" style="fill: rgb(255, 255, 255);">
<rect width="100" height="100"/>
</g></g><g transform="translate(280,840) scale(0.35,0.35)"><g transform="" style="fill: rgb(255, 255, 255);">
<rect width="100" height="100"/>
</g></g><g transform="translate(315,840) scale(0.35,0.35)"><g transform="" style="fill: rgb(255, 255, 255);">
<g>
	<path d="M100,0H0v100h65.625c9.506,0,17.611-3.354,24.316-10.059S100,75.131,100,65.625V0z"/>
</g>
</g></g><g transform="translate(385,840) scale(0.35,0.35)"><g transform="" style="fill: rgb(255, 255, 255);">
<path d="M0.001,25.574C0.001,13.89,0-1,0-1s34.008,0,49.953,0.001c12.452-0.001,49.952,0,49.952,0v25.068
	c0,0,2.101,65.501-13.486,73.267C62.305,109.353,0.001,53.264,0.001,25.574z"/>
</g></g><g transform="translate(455,840) scale(0.35,0.35)"><g transform="" style="fill: rgb(255, 255, 255);">
<path d="M73.425,0.001C85.11,0.001,100,0,100,0s0,34.008-0.001,49.953c0.001,12.452,0,49.952,0,49.952H74.931
	c0,0-65.501,2.1-73.268-13.486C-10.352,62.305,45.736,0.001,73.425,0.001z"/>
</g></g><g transform="translate(490,840) scale(0.35,0.35)"><g transform="" style="fill: rgb(255, 255, 255);">
<g>
	<path d="M100,0H0v100h65.625c9.506,0,17.611-3.354,24.316-10.059S100,75.131,100,65.625V0z"/>
</g>
</g></g><g transform="translate(560,840) scale(0.35,0.35)"><g transform="" style="fill: rgb(255, 255, 255);">
<g>
	<path d="M95.338,83.975C120.428,37.136,29.47-30.196,4.645,16.13C-20.399,62.878,70.625,130.076,95.338,83.975"/>
</g>
</g></g><g transform="translate(665,840) scale(0.35,0.35)"><g transform="" style="fill: rgb(255, 255, 255);">
<g>
	<path d="M100,0H0v65.625c0,9.506,3.353,17.611,10.059,24.316S24.87,100,34.375,100H100V0z"/>
</g>
</g></g><g transform="translate(700,840) scale(0.35,0.35)"><g transform="" style="fill: rgb(255, 255, 255);">
<rect width="100" height="100"/>
</g></g><g transform="translate(735,840) scale(0.35,0.35)"><g transform="" style="fill: rgb(255, 255, 255);">
<rect width="100" height="100"/>
</g></g><g transform="translate(770,840) scale(0.35,0.35)"><g transform="" style="fill: rgb(255, 255, 255);">
<rect width="100" height="100"/>
</g></g><g transform="translate(805,840) scale(0.35,0.35)"><g transform="" style="fill: rgb(255, 255, 255);">
<rect width="100" height="100"/>
</g></g><g transform="translate(840,840) scale(0.35,0.35)"><g transform="" style="fill: rgb(255, 255, 255);">
<rect width="100" height="100"/>
</g></g><g transform="translate(875,840) scale(0.35,0.35)"><g transform="" style="fill: rgb(255, 255, 255);">
<path d="M26.574,99.999C14.89,99.999,0,100,0,100s0-34.008,0.001-49.953c-0.001-12.453,0-49.953,0-49.953h25.068
	c0,0,64.501-2.101,72.268,13.486C109.354,37.695,54.264,99.999,26.574,99.999z"/>
</g></g><g transform="translate(945,840) scale(0.35,0.35)"><g transform="" style="fill: rgb(255, 255, 255);">
<path d="M73.425,0.001C85.11,0.001,100,0,100,0s0,34.008-0.001,49.953c0.001,12.452,0,49.952,0,49.952H74.931
	c0,0-65.501,2.1-73.268-13.486C-10.352,62.305,45.736,0.001,73.425,0.001z"/>
</g></g><g transform="translate(980,840) scale(0.35,0.35)"><g transform="" style="fill: rgb(255, 255, 255);">
<g>
	<path d="M100,34.375c0-9.505-3.354-17.611-10.059-24.316S75.131,0,65.625,0H0v100h100V34.375z"/>
</g>
</g></g><g transform="translate(280,875) scale(0.35,0.35)"><g transform="" style="fill: rgb(255, 255, 255);">
<path d="M0.001,25.574C0.001,13.89,0-1,0-1s34.008,0,49.953,0.001c12.452-0.001,49.952,0,49.952,0v25.068
	c0,0,2.101,65.501-13.486,73.267C62.305,109.353,0.001,53.264,0.001,25.574z"/>
</g></g><g transform="translate(525,875) scale(0.35,0.35)"><g transform="" style="fill: rgb(255, 255, 255);">
<path d="M99.999,73.426C99.999,85.11,100,100,100,100s-34.008,0-49.953-0.001c-12.452,0.001-49.952,0-49.952,0V74.931
	c0,0-2.101-65.501,13.486-73.267C37.695-10.353,99.999,45.737,99.999,73.426z"/>
</g></g><g transform="translate(700,875) scale(0.35,0.35)"><g transform="" style="fill: rgb(255, 255, 255);">
<path d="M0.001,25.574C0.001,13.89,0-1,0-1s34.008,0,49.953,0.001c12.452-0.001,49.952,0,49.952,0v25.068
	c0,0,2.101,65.501-13.486,73.267C62.305,109.353,0.001,53.264,0.001,25.574z"/>
</g></g><g transform="translate(805,875) scale(0.35,0.35)"><g transform="" style="fill: rgb(255, 255, 255);">
<rect width="100" height="100"/>
</g></g><g transform="translate(980,875) scale(0.35,0.35)"><g transform="" style="fill: rgb(255, 255, 255);">
<rect width="100" height="100"/>
</g></g><g transform="translate(315,910) scale(0.35,0.35)"><g transform="" style="fill: rgb(255, 255, 255);">
<path d="M73.425,0.001C85.11,0.001,100,0,100,0s0,34.008-0.001,49.953c0.001,12.452,0,49.952,0,49.952H74.931
	c0,0-65.501,2.1-73.268-13.486C-10.352,62.305,45.736,0.001,73.425,0.001z"/>
</g></g><g transform="translate(350,910) scale(0.35,0.35)"><g transform="" style="fill: rgb(255, 255, 255);">
<rect width="100" height="100"/>
</g></g><g transform="translate(385,910) scale(0.35,0.35)"><g transform="" style="fill: rgb(255, 255, 255);">
<g>
	<path d="M100,34.375c0-9.505-3.354-17.611-10.059-24.316S75.131,0,65.625,0H0v100h100V34.375z"/>
</g>
</g></g><g transform="translate(490,910) scale(0.35,0.35)"><g transform="" style="fill: rgb(255, 255, 255);">
<g>
	<path d="M100,34.375V0H34.375C24.87,0,16.764,3.353,10.059,10.059S0,24.87,0,34.375V100h100V34.375z"/>
</g>
</g></g><g transform="translate(525,910) scale(0.35,0.35)"><g transform="" style="fill: rgb(255, 255, 255);">
<g>
	<path d="M100,0H0v100h65.625c9.506,0,17.611-3.354,24.316-10.059S100,75.131,100,65.625V0z"/>
</g>
</g></g><g transform="translate(595,910) scale(0.35,0.35)"><g transform="" style="fill: rgb(255, 255, 255);">
<path d="M73.425,0.001C85.11,0.001,100,0,100,0s0,34.008-0.001,49.953c0.001,12.452,0,49.952,0,49.952H74.931
	c0,0-65.501,2.1-73.268-13.486C-10.352,62.305,45.736,0.001,73.425,0.001z"/>
</g></g><g transform="translate(630,910) scale(0.35,0.35)"><g transform="" style="fill: rgb(255, 255, 255);">
<g>
	<path d="M100,34.375c0-9.505-3.354-17.611-10.059-24.316S75.131,0,65.625,0H0v100h100V34.375z"/>
</g>
</g></g><g transform="translate(735,910) scale(0.35,0.35)"><g transform="" style="fill: rgb(255, 255, 255);">
<path d="M99.999,73.426C99.999,85.11,100,100,100,100s-34.008,0-49.953-0.001c-12.452,0.001-49.952,0-49.952,0V74.931
	c0,0-2.101-65.501,13.486-73.267C37.695-10.353,99.999,45.737,99.999,73.426z"/>
</g></g><g transform="translate(805,910) scale(0.35,0.35)"><g transform="" style="fill: rgb(255, 255, 255);">
<rect width="100" height="100"/>
</g></g><g transform="translate(840,910) scale(0.35,0.35)"><g transform="" style="fill: rgb(255, 255, 255);">
<path d="M26.574,99.999C14.89,99.999,0,100,0,100s0-34.008,0.001-49.953c-0.001-12.453,0-49.953,0-49.953h25.068
	c0,0,64.501-2.101,72.268,13.486C109.354,37.695,54.264,99.999,26.574,99.999z"/>
</g></g><g transform="translate(910,910) scale(0.35,0.35)"><g transform="" style="fill: rgb(255, 255, 255);">
<g>
	<path d="M100,34.375V0H34.375C24.87,0,16.764,3.353,10.059,10.059S0,24.87,0,34.375V100h100V34.375z"/>
</g>
</g></g><g transform="translate(945,910) scale(0.35,0.35)"><g transform="" style="fill: rgb(255, 255, 255);">
<rect width="100" height="100"/>
</g></g><g transform="translate(980,910) scale(0.35,0.35)"><g transform="" style="fill: rgb(255, 255, 255);">
<rect width="100" height="100"/>
</g></g><g transform="translate(350,945) scale(0.35,0.35)"><g transform="" style="fill: rgb(255, 255, 255);">
<g>
	<path d="M100,0H0v65.625c0,9.506,3.353,17.611,10.059,24.316S24.87,100,34.375,100H100V0z"/>
</g>
</g></g><g transform="translate(385,945) scale(0.35,0.35)"><g transform="" style="fill: rgb(255, 255, 255);">
<g>
	<path d="M100,0H0v100h65.625c9.506,0,17.611-3.354,24.316-10.059S100,75.131,100,65.625V0z"/>
</g>
</g></g><g transform="translate(455,945) scale(0.35,0.35)"><g transform="" style="fill: rgb(255, 255, 255);">
<g>
	<path d="M100,34.375V0H34.375C24.87,0,16.764,3.353,10.059,10.059S0,24.87,0,34.375V100h100V34.375z"/>
</g>
</g></g><g transform="translate(490,945) scale(0.35,0.35)"><g transform="" style="fill: rgb(255, 255, 255);">
<rect width="100" height="100"/>
</g></g><g transform="translate(630,945) scale(0.35,0.35)"><g transform="" style="fill: rgb(255, 255, 255);">
<path d="M0.001,25.574C0.001,13.89,0-1,0-1s34.008,0,49.953,0.001c12.452-0.001,49.952,0,49.952,0v25.068
	c0,0,2.101,65.501-13.486,73.267C62.305,109.353,0.001,53.264,0.001,25.574z"/>
</g></g><g transform="translate(700,945) scale(0.35,0.35)"><g transform="" style="fill: rgb(255, 255, 255);">
<g>
	<path d="M100,34.375V0H34.375C24.87,0,16.764,3.353,10.059,10.059S0,24.87,0,34.375V100h100V34.375z"/>
</g>
</g></g><g transform="translate(735,945) scale(0.35,0.35)"><g transform="" style="fill: rgb(255, 255, 255);">
<g>
	<path d="M100,0H0v100h65.625c9.506,0,17.611-3.354,24.316-10.059S100,75.131,100,65.625V0z"/>
</g>
</g></g><g transform="translate(805,945) scale(0.35,0.35)"><g transform="" style="fill: rgb(255, 255, 255);">
<path d="M0.001,25.574C0.001,13.89,0-1,0-1s34.008,0,49.953,0.001c12.452-0.001,49.952,0,49.952,0v25.068
	c0,0,2.101,65.501-13.486,73.267C62.305,109.353,0.001,53.264,0.001,25.574z"/>
</g></g><g transform="translate(875,945) scale(0.35,0.35)"><g transform="" style="fill: rgb(255, 255, 255);">
<path d="M73.425,0.001C85.11,0.001,100,0,100,0s0,34.008-0.001,49.953c0.001,12.452,0,49.952,0,49.952H74.931
	c0,0-65.501,2.1-73.268-13.486C-10.352,62.305,45.736,0.001,73.425,0.001z"/>
</g></g><g transform="translate(910,945) scale(0.35,0.35)"><g transform="" style="fill: rgb(255, 255, 255);">
<g>
	<path d="M100,0H0v100h65.625c9.506,0,17.611-3.354,24.316-10.059S100,75.131,100,65.625V0z"/>
</g>
</g></g><g transform="translate(980,945) scale(0.35,0.35)"><g transform="" style="fill: rgb(255, 255, 255);">
<path d="M0.001,25.574C0.001,13.89,0-1,0-1s34.008,0,49.953,0.001c12.452-0.001,49.952,0,49.952,0v25.068
	c0,0,2.101,65.501-13.486,73.267C62.305,109.353,0.001,53.264,0.001,25.574z"/>
</g></g><g transform="translate(280,980) scale(0.35,0.35)"><g transform="" style="fill: rgb(255, 255, 255);">
<g>
	<path d="M95.338,83.975C120.428,37.136,29.47-30.196,4.645,16.13C-20.399,62.878,70.625,130.076,95.338,83.975"/>
</g>
</g></g><g transform="translate(455,980) scale(0.35,0.35)"><g transform="" style="fill: rgb(255, 255, 255);">
<g>
	<path d="M100,0H0v65.625c0,9.506,3.353,17.611,10.059,24.316S24.87,100,34.375,100H100V0z"/>
</g>
</g></g><g transform="translate(490,980) scale(0.35,0.35)"><g transform="" style="fill: rgb(255, 255, 255);">
<rect width="100" height="100"/>
</g></g><g transform="translate(525,980) scale(0.35,0.35)"><g transform="" style="fill: rgb(255, 255, 255);">
<path d="M26.574,99.999C14.89,99.999,0,100,0,100s0-34.008,0.001-49.953c-0.001-12.453,0-49.953,0-49.953h25.068
	c0,0,64.501-2.101,72.268,13.486C109.354,37.695,54.264,99.999,26.574,99.999z"/>
</g></g><g transform="translate(665,980) scale(0.35,0.35)"><g transform="" style="fill: rgb(255, 255, 255);">
<path d="M73.425,0.001C85.11,0.001,100,0,100,0s0,34.008-0.001,49.953c0.001,12.452,0,49.952,0,49.952H74.931
	c0,0-65.501,2.1-73.268-13.486C-10.352,62.305,45.736,0.001,73.425,0.001z"/>
</g></g><g transform="translate(700,980) scale(0.35,0.35)"><g transform="" style="fill: rgb(255, 255, 255);">
<g>
	<path d="M100,0H0v100h65.625c9.506,0,17.611-3.354,24.316-10.059S100,75.131,100,65.625V0z"/>
</g>
</g></g><g transform="translate(770,980) scale(0.35,0.35)"><g transform="" style="fill: rgb(255, 255, 255);">
<g>
	<path d="M95.338,83.975C120.428,37.136,29.47-30.196,4.645,16.13C-20.399,62.878,70.625,130.076,95.338,83.975"/>
</g>
</g></g><g transform="translate(0,0) scale(2.45, 2.45)"><g transform=" translate(0,100) scale(1,-1) " style="fill: rgb(255, 255, 255);">
<g>
</g>
<g>
	<path fill="none" d="M15.02,34.145L15.004,85H66.25C76.589,85,85,76.414,85,65.86V15H33.78C23.436,15,15.02,23.586,15.02,34.145z"
		/>
	<path d="M66.25,0H33.78C15.16,0,0.02,15.32,0.02,34.14L0,100h66.25C84.86,100,100,84.68,100,65.86V34.14V0H66.25z M85,65.86
		C85,76.414,76.589,85,66.25,85H15.004l0.016-50.855C15.02,23.586,23.436,15,33.78,15H85V65.86z"/>
</g>
</g></g><g transform="translate(770,0) scale(2.45, 2.45)"><g transform="" style="fill: rgb(255, 255, 255);">
<g>
</g>
<g>
	<path fill="none" d="M15.02,34.145L15.004,85H66.25C76.589,85,85,76.414,85,65.86V15H33.78C23.436,15,15.02,23.586,15.02,34.145z"
		/>
	<path d="M66.25,0H33.78C15.16,0,0.02,15.32,0.02,34.14L0,100h66.25C84.86,100,100,84.68,100,65.86V34.14V0H66.25z M85,65.86
		C85,76.414,76.589,85,66.25,85H15.004l0.016-50.855C15.02,23.586,23.436,15,33.78,15H85V65.86z"/>
</g>
</g></g><g transform="translate(0,770) scale(2.45, 2.45)"><g transform="" style="fill: rgb(255, 255, 255);">
<g>
</g>
<g>
	<path fill="none" d="M15.02,34.145L15.004,85H66.25C76.589,85,85,76.414,85,65.86V15H33.78C23.436,15,15.02,23.586,15.02,34.145z"
		/>
	<path d="M66.25,0H33.78C15.16,0,0.02,15.32,0.02,34.14L0,100h66.25C84.86,100,100,84.68,100,65.86V34.14V0H66.25z M85,65.86
		C85,76.414,76.589,85,66.25,85H15.004l0.016-50.855C15.02,23.586,23.436,15,33.78,15H85V65.86z"/>
</g>
</g></g><g transform="translate(70,70) scale(1.05, 1.05)"><g transform=" translate(0,100) scale(1,-1) " style="fill: rgb(255, 255, 255);">
<g>
</g>
<path d="M72.744-0.021H27.23c-2.341,0-4.612,0.297-6.771,0.875C15.679,2.11,11.418,4.648,8.04,8.09
	c-0.617,0.621-1.206,1.284-1.752,1.96c-3.883,4.767-6.21,10.903-6.21,17.561L0.05,99.979h72.694
	c14.971,0,27.138-12.397,27.138-27.63V27.625v-0.014l0.168-27.617C100.05-0.006,82.107-0.021,72.744-0.021z"/>
</g></g><g transform="translate(840,70) scale(1.05, 1.05)"><g transform="" style="fill: rgb(255, 255, 255);">
<g>
</g>
<path d="M72.744-0.021H27.23c-2.341,0-4.612,0.297-6.771,0.875C15.679,2.11,11.418,4.648,8.04,8.09
	c-0.617,0.621-1.206,1.284-1.752,1.96c-3.883,4.767-6.21,10.903-6.21,17.561L0.05,99.979h72.694
	c14.971,0,27.138-12.397,27.138-27.63V27.625v-0.014l0.168-27.617C100.05-0.006,82.107-0.021,72.744-0.021z"/>
</g></g><g transform="translate(70,840) scale(1.05, 1.05)"><g transform="" style="fill: rgb(255, 255, 255);">
<g>
</g>
<path d="M72.744-0.021H27.23c-2.341,0-4.612,0.297-6.771,0.875C15.679,2.11,11.418,4.648,8.04,8.09
	c-0.617,0.621-1.206,1.284-1.752,1.96c-3.883,4.767-6.21,10.903-6.21,17.561L0.05,99.979h72.694
	c14.971,0,27.138-12.397,27.138-27.63V27.625v-0.014l0.168-27.617C100.05-0.006,82.107-0.021,72.744-0.021z"/>
</g></g></g></svg>