<svg width="97" height="97" viewBox="0 0 97 97" fill="none" xmlns="http://www.w3.org/2000/svg">
<g clip-path="url(#clip0_541_72)">
<mask id="mask0_541_72" style="mask-type:alpha" maskUnits="userSpaceOnUse" x="0" y="0" width="97" height="97">
<path d="M97 0H0V97H97V0Z" fill="white"/>
</mask>
<g mask="url(#mask0_541_72)">
<path d="M84.0904 -1.23975H12.9835C9.21214 -1.23975 5.59527 0.257902 2.92855 2.92372C0.261824 5.58954 -1.23633 9.20518 -1.23633 12.9752V84.0554C-1.23633 87.8254 0.261824 91.441 2.92855 94.1068C5.59527 96.7727 9.21214 98.2703 12.9835 98.2703H84.0851C85.9526 98.2707 87.802 97.9033 89.5275 97.189C91.2532 96.4748 92.821 95.4278 94.1417 94.1078C95.4624 92.7878 96.5101 91.2206 97.2249 89.4958C97.9397 87.7709 98.3076 85.9223 98.3076 84.0554V12.9752C98.3076 11.1083 97.9397 9.25958 97.2249 7.53478C96.5101 5.80996 95.4624 4.2428 94.1417 2.92278C92.821 1.60276 91.2532 0.555754 89.5275 -0.158458C87.802 -0.87267 85.9526 -1.24009 84.0851 -1.23975H84.0904Z" fill="#F9A825" stroke="white" stroke-width="1.5"/>
<path d="M48.3336 34.4829V51.446L55.5222 56.5691L57.7273 53.589L52.1679 49.5802V34.4829H48.3336ZM42.073 37.6415C42.073 28.9734 35.0178 21.8646 26.4187 21.8646C17.8169 21.8646 10.7617 28.9734 10.7617 37.6415C10.7617 46.3069 17.8169 53.4157 26.4187 53.4157C35.0178 53.3198 42.0703 46.3069 42.0703 37.6415H42.073ZM24.4855 28.4857H28.3519V40.2697H24.4855V28.4883V28.4857ZM26.0321 47.2798C25.9334 47.2798 25.8374 47.1839 25.6454 47.1839C25.5494 47.1839 25.4508 47.0852 25.2589 46.9893C25.1628 46.8907 25.0642 46.7947 24.9682 46.7947C24.8722 46.6961 24.7761 46.6001 24.7761 46.5015C24.6776 46.4056 24.6776 46.3069 24.5815 46.2083C24.4855 46.1123 24.4855 46.0164 24.4855 45.8192V45.43V45.0408C24.4855 44.9449 24.5815 44.8463 24.5815 44.6517C24.5815 44.553 24.6776 44.4571 24.7761 44.2625C24.8722 44.164 24.8722 44.0679 24.9682 43.9694C25.0642 43.8733 25.1628 43.7748 25.2589 43.7748C25.3548 43.6788 25.4508 43.6788 25.6454 43.5802C25.7415 43.5802 25.8374 43.4842 26.0321 43.4842H26.8054C26.9013 43.4842 27.0933 43.5802 27.1919 43.5802C27.288 43.6788 27.3839 43.6788 27.4799 43.7748C27.5786 43.8733 27.6745 43.9694 27.7732 43.9694C27.8665 44.0679 27.9652 44.164 27.9652 44.2625C28.0612 44.3584 28.0612 44.4571 28.1571 44.6517C28.2532 44.7503 28.2532 44.8463 28.2532 45.0408V45.8192C28.2532 45.9177 28.1571 46.0164 28.1571 46.211C28.1571 46.3069 28.0612 46.4056 27.9652 46.5042C27.8665 46.6001 27.8665 46.6961 27.7706 46.7947C27.6745 46.8907 27.5786 46.9893 27.4799 46.9893C27.3839 47.0852 27.288 47.0852 27.1919 47.1839C27.0933 47.2825 26.9973 47.2825 26.8054 47.2825H26.4187C26.3652 47.3294 26.2965 47.3553 26.2254 47.3553C26.1543 47.3553 26.0855 47.3294 26.0321 47.2825V47.2798Z" fill="#25303B"/>
<path d="M51.9771 21.8646C48.2442 21.8646 44.7033 22.6083 41.5437 23.909C42.5969 24.746 43.5541 25.7695 44.4153 26.7903C46.8624 26.0124 49.4122 25.6055 51.9798 25.583C65.0931 25.583 75.8172 35.9943 75.8172 48.7299C75.8172 61.4655 65.0931 71.7862 51.9798 71.7862C47.5766 71.802 43.2541 70.604 39.4875 68.3238C35.721 66.0436 32.6563 62.7695 30.6302 58.8613C29.8649 58.9545 29.0037 59.048 28.1425 59.048C27.5664 59.048 26.9932 59.048 26.4199 58.9547C30.6328 68.6223 40.4904 75.5019 51.9798 75.5019C67.1996 75.5019 79.6462 63.4167 79.6462 48.6366C79.6462 33.8592 67.1996 21.8646 51.9771 21.8646Z" fill="#25303B" stroke="#25303B" stroke-width="0.15"/>
</g>
</g>
<defs>
<clipPath id="clip0_541_72">
<rect width="97" height="97" rx="12" fill="white"/>
</clipPath>
</defs>
</svg>
