<svg width="186" height="89" viewBox="0 0 186 89" fill="none" xmlns="http://www.w3.org/2000/svg">
<g clip-path="url(#clip0_553_9)">
<path d="M87.0746 5.78542H2.92512C1.30937 5.78542 0 4.4906 0 2.8928C0 1.29531 1.30937 0.000488281 2.92481 0.000488281H87.0746C88.69 0.000488281 89.9997 1.29531 89.9997 2.8928C89.9997 4.4906 88.69 5.78542 87.0746 5.78542ZM89.9997 86.1079C89.9997 84.5104 88.69 83.2152 87.0746 83.2152H2.92512C1.30969 83.2152 0.0003175 84.5104 0.0003175 86.1079C0.0003175 87.7054 1.30969 89.0005 2.92512 89.0005H87.0749C88.69 89.0005 89.9997 87.7054 89.9997 86.1079ZM79.74 74.0479C80.4356 74.0479 81.0002 73.4903 81.0002 72.8021V71.5559C81.0002 70.868 80.4356 70.3101 79.74 70.3101H9.00016V74.0479H79.74ZM9.00016 53.6231H22.0948C22.4428 53.6231 22.725 53.3443 22.725 52.9999V35.7785C22.725 35.4347 22.4428 35.1556 22.0948 35.1556H9.00016V31.1506H29.4386L37.4513 24.6385L27.3726 16.451C26.9373 16.0972 26.8744 15.4617 27.2319 15.0313L27.8796 14.2517C28.2375 13.8212 28.8801 13.759 29.3154 14.1129L40.7895 23.435C41.5562 24.0579 41.5566 25.2187 40.7898 25.8416L34.2576 31.1506H65.3805C67.8493 31.1506 70.201 32.1823 71.867 33.9838C76.7711 39.2868 79.8899 45.8429 80.8859 52.9443C81.2024 55.2036 80.8551 57.4353 79.8803 59.3999C77.6309 63.9339 73.0633 66.7506 67.9595 66.7506H8.99984V53.6231H9.00016ZM68.8431 36.6482C67.9551 35.6909 66.6943 35.1556 65.3808 35.1556H54.4051C54.0571 35.1556 53.7752 35.4347 53.7752 35.7785V52.9999C53.7752 53.3443 54.0571 53.6231 54.4051 53.6231H73.1735C75.3769 53.6231 76.6885 51.9076 76.1269 49.8011C74.8248 44.9154 72.3451 40.4228 68.8431 36.6482ZM49.095 62.7455C49.4429 62.7455 49.7252 62.4664 49.7252 62.1226V35.7785C49.7252 35.4347 49.4429 35.1556 49.095 35.1556H40.9054C40.5574 35.1556 40.2751 35.4347 40.2751 35.7785V62.1226C40.2751 62.4664 40.5574 62.7455 40.9054 62.7455H49.095ZM27.4047 35.1556C27.0567 35.1556 26.7747 35.4347 26.7747 35.7785V62.1226C26.7747 62.4664 27.0567 62.7455 27.4047 62.7455H35.5949C35.9429 62.7455 36.2248 62.4664 36.2248 62.1226V35.7785C36.2248 35.4347 35.9429 35.1556 35.5949 35.1556H27.4047Z" fill="#25303B"/>
</g>
<g clip-path="url(#clip1_553_9)">
<mask id="mask0_553_9" style="mask-type:alpha" maskUnits="userSpaceOnUse" x="96" y="0" width="90" height="89">
<path d="M186 0H96V89H186V0Z" fill="white"/>
</mask>
<g mask="url(#mask0_553_9)">
<path d="M129.174 33.7243V61.8536H121.512V33.7243H110.854V27.5547H139.816V33.7243H129.174ZM158.921 61.8536H151.015C151.015 57.3386 152.24 54.4217 155.285 48.8392L163.734 33.2816H146.887V27.5547H171.151V33.1435C163.531 46.2049 158.921 56.45 158.921 61.841" fill="#25303B"/>
<path d="M181.501 13.3503H100.499C99.3061 13.3495 98.1622 12.8805 97.3187 12.0463C96.4751 11.2121 96.0008 10.081 96 8.90126V4.44906C96.0008 3.26935 96.4751 2.1382 97.3187 1.30402C98.1622 0.469837 99.3061 0.000831659 100.499 0L181.501 0C182.694 0 183.839 0.468739 184.682 1.3031C185.526 2.13746 186 3.26909 186 4.44906V8.90126C186 10.0812 185.526 11.2129 184.682 12.0472C183.839 12.8816 182.694 13.3503 181.501 13.3503ZM186 84.5509V80.1019C185.997 78.9244 185.521 77.7963 184.678 76.9652C183.834 76.134 182.692 75.6677 181.501 75.6685H100.499C99.3086 75.6685 98.1666 76.1351 97.3233 76.9661C96.4801 77.797 96.0042 78.9246 96 80.1019V84.5509C96 85.7312 96.4739 86.8632 97.3175 87.698C98.1612 88.5329 99.3055 89.0023 100.499 89.0031H181.501C182.092 89.0031 182.677 88.888 183.223 88.6642C183.769 88.4404 184.266 88.1124 184.683 87.6989C185.101 87.2855 185.433 86.7946 185.658 86.2545C185.884 85.7143 186 85.1355 186 84.5509Z" fill="#8D653D"/>
</g>
</g>
<defs>
<clipPath id="clip0_553_9">
<rect width="90" height="89" fill="white"/>
</clipPath>
<clipPath id="clip1_553_9">
<rect width="90" height="89" fill="white" transform="translate(96)"/>
</clipPath>
</defs>
</svg>
